<?xml version="1.0" standalone="no"?>
<!DOCTYPE svg PUBLIC "-//W3C//DTD SVG 20010904//EN"
 "http://www.w3.org/TR/2001/REC-SVG-20010904/DTD/svg10.dtd">
<svg version="1.0" xmlns="http://www.w3.org/2000/svg"
 width="512.000000pt" height="512.000000pt" viewBox="0 0 512.000000 512.000000"
 preserveAspectRatio="xMidYMid meet">
<metadata>
Created by potrace 1.14, written by Peter Selinger 2001-2017
</metadata>
<g transform="translate(0.000000,512.000000) scale(0.100000,-0.100000)"
fill="#000000" stroke="none">
<path d="M0 3878 c1 -985 3 -1240 13 -1228 7 8 28 26 47 39 33 23 57 43 101
84 13 11 19 31 19 60 1 32 7 49 30 75 16 17 34 32 39 32 15 0 50 41 73 83 15
30 17 45 10 66 -8 24 -5 35 20 72 17 24 39 62 49 84 10 23 32 53 49 68 16 15
30 32 30 37 0 6 7 10 15 10 8 0 15 8 16 18 4 63 11 84 45 147 21 39 49 86 63
105 57 77 121 153 140 167 12 8 21 19 21 24 0 6 6 17 14 25 8 8 18 35 22 60 5
34 14 50 36 67 28 21 78 112 78 144 0 7 7 16 15 19 8 4 12 11 8 17 -3 5 -1 7
5 3 15 -9 42 -107 42 -154 0 -73 21 -139 60 -186 21 -25 42 -64 48 -88 13 -49
45 -76 67 -58 20 17 13 174 -10 222 -17 34 -17 41 -3 85 19 60 41 71 32 16 -5
-32 -1 -46 19 -77 14 -20 33 -59 42 -86 9 -28 21 -52 26 -56 5 -3 7 -10 4 -15
-4 -5 -1 -9 4 -9 6 0 11 -7 11 -15 0 -8 -4 -15 -9 -15 -18 0 -17 -35 2 -90 24
-66 57 -100 99 -100 27 0 30 -2 24 -25 -4 -14 -3 -31 1 -38 4 -6 6 -26 4 -44
-2 -32 -1 -33 33 -33 42 0 54 -18 63 -90 5 -46 4 -50 -16 -50 -12 0 -29 9 -39
21 -9 11 -25 30 -34 41 -10 12 -18 27 -18 35 0 7 -7 13 -15 13 -10 0 -15 -10
-15 -34 0 -52 -9 -66 -42 -66 -21 0 -31 -6 -35 -19 -3 -11 -14 -21 -26 -23
-16 -2 -23 -15 -32 -55 -7 -29 -10 -55 -7 -58 3 -3 1 -5 -4 -6 -5 0 -38 -2
-74 -5 -35 -2 -69 -9 -74 -14 -6 -6 -17 -10 -26 -10 -9 0 -40 -7 -69 -16 -41
-12 -50 -18 -42 -28 13 -15 4 -26 -21 -26 -30 0 -20 -25 28 -68 32 -28 48 -52
55 -79 13 -56 11 -63 -15 -73 -13 -5 -27 -19 -31 -31 -9 -27 -54 -79 -70 -79
-6 0 -21 -21 -34 -47 -21 -44 -21 -48 -6 -59 9 -7 14 -17 11 -23 -4 -5 4 -17
16 -26 19 -12 20 -17 9 -24 -18 -12 -26 -108 -11 -145 5 -15 19 -30 30 -33 17
-5 18 -8 8 -21 -10 -12 -11 -16 0 -19 7 -3 17 -13 22 -24 8 -14 7 -17 -4 -13
-8 3 -33 0 -56 -6 -48 -13 -63 -7 -34 15 21 16 4 21 -24 6 -9 -4 -33 -11 -52
-14 -27 -5 -31 -4 -17 4 9 5 17 16 17 24 0 7 6 16 12 18 25 10 -16 28 -52 23
-31 -4 -33 -3 -17 8 19 14 11 26 -26 39 -10 4 -16 11 -12 16 3 5 0 13 -6 17
-6 3 -15 0 -20 -7 -7 -12 -12 -12 -30 -1 -28 17 -45 2 -30 -26 6 -10 7 -22 4
-26 -3 -3 -1 -6 5 -6 7 0 12 -14 12 -30 0 -18 6 -33 15 -36 13 -5 12 -10 -6
-25 l-22 -19 34 0 34 0 -32 -21 c-28 -18 -31 -23 -18 -35 8 -8 12 -20 9 -28
-3 -7 1 -26 7 -42 7 -16 11 -33 10 -39 -10 -40 -9 -43 25 -49 27 -6 38 -15 54
-46 22 -43 26 -75 10 -85 -6 -4 -8 -11 -4 -16 4 -6 11 -6 20 2 8 6 17 9 21 5
9 -9 -2 -17 -26 -19 -13 -1 -21 -8 -21 -19 0 -15 4 -16 31 -6 16 6 33 8 36 4
4 -3 -1 -6 -10 -6 -10 0 -17 -5 -17 -11 0 -7 -8 -18 -18 -25 -16 -13 -16 -13
0 -14 15 0 16 -4 7 -26 -5 -15 -8 -28 -6 -30 7 -7 52 23 52 34 0 12 23 32 37
32 4 0 5 -7 2 -15 -4 -8 -1 -15 5 -15 6 0 11 4 11 10 0 13 57 70 70 70 5 0 10
4 10 9 0 5 7 12 15 15 10 4 7 -6 -10 -28 -14 -18 -22 -36 -18 -39 12 -12 23
-7 24 11 0 18 56 68 66 59 3 -3 5 -29 5 -57 0 -37 3 -49 11 -41 18 18 29 13
17 -8 -13 -25 -13 -41 0 -41 6 0 10 7 10 16 0 13 3 14 13 5 10 -8 17 -7 25 1
9 9 12 8 12 -4 0 -8 -7 -21 -15 -28 -8 -7 -15 -27 -14 -44 0 -28 1 -29 9 -8
11 26 38 29 47 6 7 -20 -63 -88 -82 -80 -8 3 -19 -2 -26 -10 -9 -11 -23 -14
-44 -10 -27 5 -31 3 -30 -14 1 -11 4 -23 8 -26 4 -4 7 -17 7 -28 0 -12 3 -16
8 -10 7 11 44 -20 40 -33 -2 -5 7 -9 19 -11 19 -3 21 -6 12 -29 -11 -30 3 -46
34 -39 13 3 17 0 13 -12 -2 -9 -8 -33 -12 -52 -3 -19 -13 -44 -20 -55 -8 -11
-14 -26 -14 -33 0 -7 -7 -20 -15 -28 -8 -9 -15 -24 -15 -35 0 -13 -7 -19 -22
-19 -13 0 -28 -4 -34 -8 -13 -8 -24 -72 -13 -72 4 0 2 -11 -4 -25 -8 -15 -20
-25 -34 -25 -12 0 -25 -5 -28 -10 -3 -5 -16 -10 -28 -10 -18 0 -19 -2 -7 -10
13 -9 13 -12 -2 -21 -27 -15 -23 -42 5 -37 17 3 26 -2 34 -19 9 -18 8 -23 -3
-23 -23 0 -16 -18 14 -35 l27 -15 -39 2 c-26 2 -41 -2 -44 -11 -3 -10 1 -12
17 -8 11 3 21 1 21 -5 0 -7 17 -7 48 -2 26 4 66 7 89 5 23 -1 44 3 47 8 3 5
15 7 27 4 17 -5 20 -2 17 13 -2 11 -12 19 -23 20 -46 2 -55 4 -55 12 0 5 7 9
15 10 8 1 21 3 28 3 44 5 191 -25 211 -43 13 -11 29 -10 22 1 -3 4 1 17 9 27
13 16 16 17 24 4 6 -8 14 -11 18 -6 4 5 2 11 -4 13 -7 3 -13 9 -13 14 0 14 48
11 53 -3 3 -9 10 -6 22 10 17 23 49 29 60 12 9 -14 28 -12 22 3 -5 13 41 16
61 3 8 -5 12 0 12 15 0 18 2 19 15 9 8 -7 21 -10 29 -7 8 3 17 3 20 -1 4 -3
25 -7 47 -8 46 -2 60 -11 39 -25 -11 -6 -4 -8 21 -5 37 5 38 3 40 -46 0 -12 7
-17 22 -15 13 1 21 -3 20 -10 -2 -7 5 -13 15 -13 9 0 30 -7 46 -15 22 -12 32
-12 42 -4 18 15 18 33 0 48 -17 14 -17 78 0 85 15 6 112 -19 99 -26 -11 -5 13
1 35 10 13 5 13 3 2 -11 -12 -14 -9 -18 17 -31 17 -9 34 -16 38 -15 4 1 14 1
21 0 16 -1 92 -80 92 -96 0 -7 11 -16 25 -19 14 -4 24 -11 22 -17 -1 -6 14
-20 33 -30 l35 -20 -45 3 c-33 2 -44 0 -42 -10 1 -8 -2 -11 -8 -7 -6 4 -17 1
-25 -5 -12 -10 -15 -9 -15 3 0 11 -9 15 -30 15 -33 -1 -43 -28 -11 -28 44 0
69 -24 33 -33 -12 -3 -10 -6 11 -12 18 -5 37 -3 53 5 27 15 32 30 8 30 -8 0
-12 4 -9 10 3 5 22 10 42 10 29 0 33 -2 24 -14 -10 -11 -8 -16 7 -20 36 -12
71 15 37 28 -26 10 0 49 27 40 13 -4 18 -2 14 4 -3 5 1 13 10 16 24 9 62 7 69
-4 3 -5 17 -10 31 -10 33 0 22 16 -22 35 -43 18 -46 45 -4 45 18 0 33 7 39 18
11 21 -2 48 -18 38 -6 -4 -11 0 -11 8 0 9 -6 16 -13 16 -7 0 -28 16 -47 35
-22 23 -43 35 -61 35 -23 0 -26 3 -21 27 5 27 5 27 15 5 6 -12 18 -22 28 -22
10 0 30 -5 45 -12 23 -11 28 -10 40 7 7 11 22 29 32 40 11 11 22 27 25 35 3 8
6 1 6 -15 1 -26 7 -32 39 -43 20 -7 60 -17 87 -22 28 -4 57 -10 65 -11 11 -3
16 6 18 34 2 21 -1 44 -6 50 -16 21 6 76 38 92 16 8 35 15 43 15 18 0 127 99
127 116 0 8 5 14 11 14 5 0 7 -5 3 -12 -5 -8 2 -9 27 -4 19 3 35 10 37 15 1 4
17 30 34 57 18 27 32 52 33 56 0 3 3 10 8 14 6 7 12 -37 8 -60 -1 -5 5 -3 14
4 11 9 15 23 12 40 -7 34 30 70 72 70 17 0 57 -14 90 -31 54 -28 61 -30 88
-17 24 11 29 21 36 73 5 33 17 78 27 100 14 30 17 53 13 93 -6 53 15 116 43
134 22 15 94 221 94 270 0 13 -40 9 -41 -4 -3 -22 -20 115 -22 177 -3 53 -6
61 -29 74 -32 18 -57 113 -36 139 7 8 14 32 15 53 2 31 -3 46 -25 70 -25 28
-32 31 -65 25 -30 -6 -37 -11 -37 -31 0 -13 -8 -31 -17 -40 -16 -16 -17 -16
-30 1 -42 59 -41 59 -78 17 -44 -49 -44 -30 0 54 19 37 35 74 35 83 0 8 7 28
15 44 8 15 15 38 15 51 0 27 25 53 33 33 3 -9 7 -7 12 5 5 12 2 24 -7 34 -12
11 -14 30 -11 76 9 115 -47 277 -118 342 l-33 30 32 -38 c18 -21 32 -45 32
-53 0 -20 -85 -272 -114 -339 -7 -16 -26 -61 -41 -98 -16 -37 -32 -70 -37 -73
-4 -3 -8 -14 -8 -25 0 -23 -51 -79 -72 -79 -22 0 -88 68 -88 90 0 12 12 47 26
78 14 31 33 73 41 92 8 19 20 49 28 65 22 51 63 166 74 210 4 17 13 40 19 52
7 12 12 30 12 40 0 10 8 37 18 60 13 33 21 41 35 37 28 -9 20 2 -20 27 -31 19
-51 23 -114 23 -134 -1 -251 -74 -343 -213 -24 -36 -52 -90 -62 -118 -18 -51
-43 -77 -28 -30 47 151 184 309 309 356 28 10 83 24 122 30 64 10 78 9 122 -8
43 -16 51 -17 55 -4 17 43 -7 193 -31 193 -7 0 -13 8 -14 18 0 11 -5 7 -15
-13 l-15 -30 6 42 c4 37 3 42 -17 45 -14 2 -31 18 -43 40 -21 37 -21 37 -34
15 -17 -27 -15 -130 3 -166 7 -14 16 -43 20 -63 4 -20 12 -39 19 -41 7 -3 -25
-6 -70 -6 -57 -1 -99 -7 -135 -21 -64 -24 -75 -25 -58 -5 11 13 10 14 -6 8
-17 -6 -17 -5 -6 10 12 14 10 19 -20 37 -18 11 -45 20 -60 20 -15 0 -33 6 -40
14 -25 24 -56 29 -61 9 -3 -12 -6 -7 -7 12 -2 17 -4 35 -4 42 -1 6 -5 15 -9
19 -4 4 -7 15 -7 25 0 10 -13 26 -30 36 -16 9 -30 21 -30 25 0 4 -7 8 -15 8
-8 0 -17 11 -21 25 -3 14 -11 22 -16 19 -5 -3 -7 -16 -4 -29 3 -13 0 -27 -8
-34 -27 -23 -9 -57 37 -66 33 -8 92 -44 83 -52 -2 -2 -15 2 -28 11 -31 20
-115 46 -150 46 -31 0 -38 16 -10 23 16 4 16 5 0 6 -11 1 -18 9 -18 21 0 11
-6 20 -13 20 -7 0 -18 15 -25 33 -14 40 -15 50 -3 42 6 -3 13 16 17 42 5 32 3
48 -5 51 -6 2 -11 12 -11 22 0 13 -5 17 -21 13 -16 -4 -19 -11 -15 -29 4 -13
-1 -47 -10 -75 -13 -40 -14 -53 -5 -59 7 -4 11 -20 10 -36 -2 -16 0 -35 4 -42
5 -6 5 -12 0 -12 -16 0 -30 15 -37 38 -4 13 -15 22 -27 22 -10 0 -19 5 -19 10
0 6 -11 15 -25 20 -15 6 -27 20 -31 37 -8 33 -52 121 -65 129 -5 3 -9 15 -9
28 0 35 -11 38 -36 11 -13 -14 -28 -25 -33 -25 -22 0 -40 49 -65 175 -14 72
-35 163 -46 204 -12 41 -19 80 -16 88 3 8 -1 27 -9 43 -21 41 -20 53 4 40 28
-15 31 -13 31 18 0 50 -20 62 -295 173 -80 32 -102 48 -84 59 9 6 215 -12 295
-25 26 -5 44 -3 48 4 10 16 -12 51 -33 51 -10 0 -35 12 -56 26 -39 26 -90 48
-138 59 -22 4 -28 11 -25 28 2 17 12 24 48 30 25 4 60 8 78 8 17 -1 32 3 32 8
0 11 -25 21 -54 21 -12 0 -30 6 -41 13 -23 18 -10 26 53 36 41 6 47 9 44 28
-4 31 37 41 72 18 14 -10 26 -21 26 -26 0 -5 5 -9 12 -9 6 0 4 7 -5 18 -10 10
-14 22 -11 25 10 9 -16 38 -28 31 -5 -3 -8 0 -7 7 3 20 -39 110 -63 137 l-21
22 -879 0 -878 0 0 -1242z m1340 1140 c0 -19 -18 -43 -25 -36 -4 3 -2 16 5 27
12 24 20 27 20 9z m-235 -688 c3 -47 7 -104 7 -127 1 -25 5 -40 11 -36 6 4 7
1 2 -7 -6 -10 -13 -8 -27 11 -52 66 -62 77 -70 73 -12 -7 -10 4 11 71 24 79
43 117 52 108 4 -5 10 -46 14 -93z m683 37 c19 -14 14 -29 -7 -22 -18 6 -35
-8 -36 -30 -1 -5 12 -25 27 -43 28 -33 33 -44 22 -55 -7 -7 -74 23 -74 33 0
12 -105 60 -174 80 -38 11 -71 22 -74 25 -16 16 28 29 119 36 55 4 103 10 106
13 5 5 68 -21 91 -37z m-71 -219 c40 -43 105 -143 125 -193 25 -60 31 -135 13
-135 -8 0 -15 -4 -15 -10 0 -5 4 -10 9 -10 5 0 12 -12 16 -27 4 -16 21 -55 38
-88 26 -48 37 -61 60 -63 24 -3 27 -8 27 -38 0 -19 5 -34 10 -34 6 0 11 -8 11
-17 1 -17 2 -17 6 0 2 9 12 17 21 17 12 0 13 3 4 12 -14 14 -16 68 -2 68 6 0
10 -6 10 -12 0 -7 15 -42 33 -78 33 -64 53 -140 38 -140 -4 0 -16 18 -27 39
-10 22 -22 37 -26 35 -5 -3 -9 7 -9 23 -1 23 -3 24 -6 6 -2 -12 1 -32 8 -45 7
-13 13 -30 14 -38 1 -8 2 -26 4 -40 2 -24 2 -24 16 -6 19 25 32 13 18 -17 -18
-38 -30 -90 -32 -132 -1 -22 -6 -42 -10 -45 -5 -3 -10 -14 -13 -25 -2 -11 -10
-20 -18 -20 -8 0 -21 -4 -27 -8 -7 -5 -38 -3 -70 2 -31 6 -58 11 -59 11 -3 0
-38 74 -39 82 0 4 -10 14 -22 23 -20 14 -25 13 -55 -4 -18 -11 -49 -22 -69
-26 l-36 -7 -6 49 c-3 26 -1 53 5 60 6 8 5 19 -2 34 -12 21 -11 21 25 15 33
-6 36 -6 24 7 -8 8 -31 17 -52 21 -42 8 -62 31 -75 93 -6 23 -22 56 -36 73
-14 18 -26 36 -26 41 0 6 -14 24 -30 42 -17 18 -37 51 -46 75 -9 23 -21 42
-25 42 -5 0 -9 5 -9 10 0 20 22 9 59 -31 28 -30 49 -43 80 -49 23 -4 44 -3 47
1 3 5 2 29 -2 54 -3 25 -4 45 0 45 3 0 20 -22 38 -49 34 -49 87 -111 126 -145
22 -19 22 -19 47 10 26 31 42 36 63 21 25 -19 12 29 -23 83 -19 30 -35 58 -35
62 0 4 -6 8 -14 8 -7 0 -19 7 -26 15 -11 13 -8 15 14 15 25 0 26 2 20 43 -7
51 -42 156 -59 177 -34 42 -85 122 -85 135 0 25 24 17 57 -17z m8 -216 c4 -31
10 -69 15 -84 5 -16 5 -28 1 -28 -15 0 -39 45 -44 82 -6 47 -15 61 -37 55 -14
-3 -16 0 -12 17 9 39 21 47 47 30 19 -12 25 -28 30 -72z m-95 -50 c0 -43 -11
-72 -27 -72 -9 0 -13 6 -10 15 4 8 2 17 -3 20 -11 7 -14 68 -4 78 14 14 44
-14 44 -41z m498 -255 c12 -18 22 -38 22 -45 0 -17 -22 -62 -31 -62 -5 0 -29
107 -29 133 0 16 17 4 38 -26z m382 -87 c12 -8 11 -10 -7 -10 -12 0 -25 5 -28
10 -8 13 15 13 35 0z m-95 -148 c-3 -3 -11 0 -18 7 -9 10 -8 11 6 5 10 -3 15
-9 12 -12z m205 -25 c0 -4 -6 -5 -12 -1 -7 4 -9 3 -5 -1 11 -13 38 -15 31 -3
-4 7 -2 8 4 4 22 -13 13 -28 -13 -24 -14 3 -28 1 -31 -4 -3 -5 -12 0 -20 11
-8 11 -22 22 -32 24 -9 2 -4 3 12 1 21 -3 27 0 23 10 -8 21 16 27 31 8 6 -9
12 -20 12 -25z m91 -48 c16 -11 29 -25 29 -31 0 -7 -10 -2 -23 10 -13 12 -28
22 -35 22 -6 0 -14 5 -17 10 -11 17 15 11 46 -11z m9 -62 c0 -2 -10 -12 -22
-23 l-23 -19 19 23 c18 21 26 27 26 19z m-530 -47 c35 -19 33 -86 -4 -113 -6
-5 -1 -5 12 -2 12 3 22 2 22 -3 0 -9 -46 -22 -76 -22 -23 0 -16 18 9 23 12 3
-2 3 -30 2 -57 -4 -70 10 -33 33 11 7 20 22 20 35 0 23 17 47 33 47 4 0 5 -6
2 -12 -3 -7 0 -5 7 5 15 20 14 20 38 7z m185 -107 c33 -38 31 -48 -5 -26 -16
9 -30 25 -30 35 0 25 7 23 35 -9z m160 -142 c-3 -12 -11 -19 -16 -16 -5 4 -5
14 2 26 13 26 23 18 14 -10z m-185 10 c0 -19 -12 -41 -20 -36 -10 6 -1 45 11
45 5 0 9 -4 9 -9z m-686 -16 c11 -8 14 -15 8 -15 -7 0 -12 -4 -12 -10 0 -15
16 -13 106 16 46 14 93 24 105 22 21 -3 20 -5 -14 -41 -20 -20 -37 -40 -37
-43 0 -3 -9 -17 -20 -31 -29 -37 -25 -48 21 -68 42 -20 110 -88 137 -140 29
-57 93 -136 134 -165 23 -17 37 -30 32 -30 -15 1 -78 53 -110 90 -16 19 -49
64 -72 101 -51 80 -84 112 -141 138 -31 13 -51 17 -67 11 -15 -6 -24 -5 -26 2
-3 7 -12 9 -22 5 -10 -4 -16 -13 -13 -22 4 -9 1 -12 -9 -8 -13 5 -13 8 0 28
14 21 14 23 -4 18 -26 -7 -26 14 0 22 25 8 26 21 3 29 -10 3 -26 11 -35 18
-41 29 -97 -23 -112 -105 -4 -21 -12 -40 -19 -42 -52 -16 -68 -15 -65 2 2 12
-5 19 -22 23 -20 4 -25 11 -25 35 0 17 3 35 8 42 11 17 114 83 130 83 7 0 22
9 31 19 10 11 32 22 50 24 17 2 33 4 36 5 3 1 14 -5 24 -13z m669 -55 c-3 -11
-9 -20 -14 -20 -10 0 -12 24 -2 33 13 13 21 7 16 -13z m97 10 c0 -5 -4 -10
-10 -10 -5 0 -10 5 -10 10 0 6 5 10 10 10 6 0 10 -4 10 -10z m155 -27 c-6 -35
-25 -70 -25 -47 0 18 21 84 27 84 3 0 2 -17 -2 -37z m-76 -110 c0 -32 -4 -78
-8 -103 l-8 -45 -3 50 c-7 104 -3 155 10 155 6 0 10 -25 9 -57z m43 -50 c-5
-111 12 -203 52 -282 34 -66 113 -135 173 -151 26 -6 66 -18 88 -25 l40 -12
-33 -7 c-48 -11 -134 19 -186 65 -109 96 -164 255 -150 432 9 111 22 95 16
-20z m-1087 -33 c-10 -11 -20 -18 -23 -15 -7 6 18 35 31 35 5 0 2 -9 -8 -20z
m71 -15 c-9 -9 -16 -22 -16 -28 0 -7 -4 -7 -12 2 -11 10 -8 16 11 32 28 23 41
18 17 -6z m-281 -25 c-10 -11 -22 -20 -27 -20 -5 0 -4 9 2 20 6 11 18 20 27
20 14 0 14 -2 -2 -20z m192 -72 c31 -22 44 -48 24 -48 -20 0 -81 43 -81 56 0
20 19 17 57 -8z m1091 -69 c-3 -8 -7 -3 -11 10 -4 17 -3 21 5 13 5 -5 8 -16 6
-23z m-848 -53 c0 -3 -4 -8 -10 -11 -5 -3 -10 -1 -10 4 0 6 5 11 10 11 6 0 10
-2 10 -4z m600 -10 c0 -2 -7 -6 -15 -10 -8 -3 -15 -1 -15 4 0 6 7 10 15 10 8
0 15 -2 15 -4z m-59 -36 c40 -16 76 -27 81 -24 15 10 76 -19 71 -33 -5 -12 -8
-12 -22 0 -9 8 -25 17 -36 21 -13 4 -10 -2 10 -16 16 -13 39 -24 50 -25 20 -1
146 -36 178 -48 10 -5 17 -3 17 5 0 9 4 9 13 3 6 -6 27 -13 45 -17 58 -10 125
-44 119 -60 -3 -7 0 -19 6 -25 8 -8 6 -11 -6 -11 -19 0 -20 -29 -2 -42 6 -5 4
-8 -5 -8 -8 0 -22 -5 -30 -10 -13 -8 -10 -14 15 -36 l30 -26 -36 20 c-20 11
-49 28 -64 38 -16 11 -26 14 -22 7 4 -6 3 -15 -3 -18 -6 -4 -9 -1 -8 7 2 7 -8
14 -21 16 -13 2 -21 0 -17 -6 3 -5 -4 -13 -17 -17 -19 -6 -19 -8 -4 -12 9 -2
17 -8 17 -13 0 -5 -12 -5 -27 -1 -60 18 -102 45 -120 78 -12 24 -23 33 -36 29
-9 -2 -15 0 -12 4 3 5 -18 7 -47 5 -45 -4 -48 -3 -23 5 17 5 40 11 52 13 12 2
25 5 28 9 8 7 -16 58 -27 58 -5 0 -7 4 -3 9 9 15 -74 76 -155 114 -92 43 -87
47 11 7z m84 10 c3 -5 -1 -10 -9 -10 -8 0 -18 5 -21 10 -3 6 1 10 9 10 8 0 18
-4 21 -10z m192 -47 c29 -20 53 -38 53 -39 0 -6 -55 20 -65 30 -5 6 -26 19
-45 28 -24 12 -29 17 -16 17 11 1 43 -15 73 -36z m-621 -60 c18 -12 18 -12 -2
-5 -26 9 -104 73 -104 85 0 5 19 -8 43 -29 24 -22 52 -44 63 -51z m264 77 c0
-5 -9 -10 -19 -10 -11 0 -22 -4 -25 -9 -8 -12 -66 -20 -66 -9 0 4 10 8 23 8
13 0 27 4 33 9 5 5 18 11 29 14 11 3 21 5 23 6 1 0 2 -3 2 -9z m75 -50 c3 -5
16 -10 28 -11 21 0 21 -1 2 -10 -17 -8 -17 -9 7 -6 19 3 25 0 21 -10 -4 -10 6
-13 38 -13 63 0 44 -7 -33 -13 -39 -3 -65 -1 -62 4 3 5 13 9 22 10 9 0 1 6
-18 12 -27 8 -31 11 -16 15 18 4 18 5 -5 18 -17 10 -19 13 -7 14 9 0 20 -4 23
-10z m-344 -75 c72 -78 180 -136 223 -119 13 5 11 13 -16 50 -24 34 -44 48
-87 64 -31 11 -65 25 -76 30 l-20 10 20 -4 c99 -20 115 -28 180 -101 52 -59
73 -75 108 -84 24 -6 50 -17 57 -26 14 -17 77 -20 130 -5 31 8 33 8 16 -5 -44
-33 -155 -27 -215 12 -13 9 -41 16 -62 17 -20 0 -35 4 -33 7 2 4 -8 10 -23 14
-61 15 -134 61 -194 121 -35 35 -60 64 -56 64 3 0 25 -20 48 -45z m1226 -10
c-19 -14 -5 -51 23 -60 14 -4 19 -12 16 -22 -4 -11 -2 -13 9 -10 8 4 22 -1 30
-10 9 -8 19 -13 22 -9 3 3 15 -12 27 -34 12 -21 38 -57 59 -79 20 -22 37 -47
37 -56 0 -18 12 -19 28 -3 9 9 15 8 27 -8 8 -10 15 -25 15 -31 0 -7 4 -13 10
-13 5 0 21 -17 35 -37 25 -37 35 -119 18 -137 -4 -4 -15 -31 -24 -59 -12 -39
-24 -56 -45 -67 -16 -8 -30 -18 -32 -22 -2 -5 -10 -8 -17 -8 -8 0 -16 -8 -19
-17 -5 -15 -53 -51 -76 -58 -3 -1 -18 -8 -35 -15 -16 -8 -34 -15 -40 -15 -5
-1 -21 -7 -35 -12 -17 -7 -30 -7 -42 1 -13 8 -26 7 -48 -1 -41 -15 -50 5 -21
46 27 38 26 43 -4 35 -28 -7 -33 7 -10 26 25 21 17 32 -17 25 -33 -7 -49 -16
-101 -55 -17 -14 -25 -17 -22 -7 8 19 54 52 99 71 20 8 36 22 36 30 0 10 6 13
16 9 8 -3 13 -12 10 -20 -5 -11 -2 -11 16 2 13 8 32 15 44 15 13 0 31 11 42
25 11 14 26 24 33 22 8 -2 11 -2 7 0 -4 2 -4 11 -1 19 4 10 0 12 -11 8 -20 -8
-21 10 -1 26 11 9 13 16 6 23 -7 7 -17 5 -30 -7 -11 -10 -29 -16 -41 -14 -17
2 -11 9 32 30 34 18 46 28 32 28 -28 0 -87 -40 -99 -68 -5 -12 -18 -22 -29
-22 -15 0 -16 3 -7 14 10 12 7 15 -16 19 -27 4 -27 5 -6 12 37 12 16 24 -39
22 -29 -1 -53 3 -55 9 -4 13 -62 6 -83 -10 -13 -10 -13 -9 -1 7 13 16 13 20 0
28 -8 5 -28 9 -45 9 -17 0 -45 5 -61 11 -24 8 -39 7 -68 -5 -55 -23 -292 -20
-404 6 -127 29 -187 65 -250 153 -49 66 -54 75 -42 75 6 0 17 -13 25 -29 21
-40 101 -118 145 -140 81 -42 274 -80 256 -51 -3 6 -15 10 -26 10 -11 0 -19 7
-19 16 0 11 5 14 18 9 68 -26 111 -28 166 -7 61 23 76 16 24 -10 l-33 -17 55
6 c30 3 56 10 58 14 2 4 9 6 15 3 7 -2 34 7 62 20 27 14 52 22 55 19 3 -3 0
-8 -6 -10 -6 -2 -20 -10 -30 -18 -17 -12 -14 -13 26 -9 32 3 39 2 25 -5 -17
-7 -16 -9 15 -15 55 -10 86 -3 110 24 l22 25 -21 -37 -20 -38 47 5 c26 2 59 7
73 10 17 4 30 2 34 -6 6 -9 1 -11 -19 -7 -32 6 -45 -8 -13 -15 32 -8 118 8
127 23 4 7 16 9 29 5 11 -3 29 -2 38 4 17 9 17 10 1 16 -10 4 -25 4 -34 1 -8
-3 -12 -2 -9 4 3 6 21 10 39 10 44 0 62 21 36 40 -26 19 -25 30 2 30 16 0 19
3 11 11 -17 17 -48 6 -48 -16 0 -12 -9 -22 -25 -26 -16 -4 -19 -7 -7 -8 9 -1
17 -5 17 -11 0 -15 -16 -12 -34 6 -18 17 -62 15 -59 -3 2 -7 -4 -10 -12 -7
-19 8 -19 24 0 24 8 0 15 5 15 10 0 6 11 8 25 4 38 -9 30 4 -12 22 -50 21
-123 11 -123 -16 0 -14 -7 -18 -30 -18 -30 1 -32 17 -2 19 12 0 13 2 4 6 -18
7 23 28 71 37 37 7 37 7 37 56 0 45 -18 80 -28 52 -2 -8 -8 -7 -19 3 -23 24
-8 45 32 45 19 0 35 4 35 10 0 5 -7 7 -15 4 -8 -4 -27 1 -41 11 -14 9 -35 15
-45 12 -10 -3 -17 -1 -13 4 3 5 -8 9 -25 9 -16 0 -32 -6 -34 -12 -3 -7 -6 -3
-6 10 -1 18 -7 22 -33 23 -29 2 -30 3 -7 6 15 2 56 -3 93 -11 86 -20 89 -20
76 4 -6 11 -15 20 -21 20 -6 0 -7 -4 -4 -10 3 -5 -1 -10 -9 -10 -9 0 -16 7
-16 15 0 8 -4 15 -10 15 -5 0 -10 4 -10 9 0 12 31 17 103 17 42 -1 54 -4 44
-11z m-874 -2 c-7 -2 -21 -2 -30 0 -10 3 -4 5 12 5 17 0 24 -2 18 -5z m589
-35 c-9 -9 -15 -9 -24 0 -9 9 -7 12 12 12 19 0 21 -3 12 -12z m-524 -5 c-15
-2 -42 -2 -60 0 -18 2 -6 4 27 4 33 0 48 -2 33 -4z m-1269 -14 c17 -6 31 -16
31 -23 0 -14 -37 -56 -50 -56 -4 0 -16 -3 -24 -6 -12 -5 -15 -2 -10 11 6 14 3
16 -14 10 -19 -5 -22 -2 -22 22 0 50 27 63 89 42z m334 -34 c-3 -9 -8 -14 -10
-11 -3 3 -2 9 2 15 9 16 15 13 8 -4z m887 -1 c0 -2 -21 -4 -47 -4 -27 0 -43 4
-36 8 12 8 83 4 83 -4z m700 2 c0 -11 -19 -15 -25 -6 -3 5 1 10 9 10 9 0 16
-2 16 -4z m-1862 -46 c12 0 13 -3 4 -12 -17 -17 -15 -28 5 -21 12 5 15 2 11
-9 -4 -9 -2 -20 3 -25 5 -5 0 -14 -11 -21 -18 -11 -20 -10 -20 13 0 17 -4 23
-14 19 -8 -3 -16 4 -20 20 -4 18 -11 24 -24 20 -14 -5 -14 -3 3 10 11 9 26 14
33 11 8 -3 21 -5 30 -5z m438 -43 c13 5 16 2 11 -10 -3 -8 -1 -18 6 -20 9 -3
8 -8 -2 -20 -16 -20 -1 -23 18 -4 11 10 13 9 8 -5 -4 -10 -2 -18 4 -18 6 0 7
-4 4 -10 -3 -5 -2 -10 3 -10 6 0 12 -6 15 -13 4 -10 -3 -13 -24 -12 -25 2 -28
-1 -23 -22 5 -19 3 -22 -10 -17 -11 4 -14 13 -11 24 3 10 -1 35 -9 54 -8 20
-11 36 -6 36 10 0 -17 57 -31 65 -5 4 -9 14 -9 23 0 11 7 5 20 -15 14 -24 24
-31 36 -26z m1438 -32 c3 -8 14 -15 24 -15 10 0 26 -6 36 -13 17 -12 17 -14 3
-20 -28 -11 -74 12 -80 39 -5 26 7 33 17 9z m-509 -15 c-10 -11 -23 -20 -28
-20 -6 0 -2 9 8 20 10 11 23 20 28 20 6 0 2 -9 -8 -20z m273 13 c-10 -2 -28
-2 -40 0 -13 2 -5 4 17 4 22 1 32 -1 23 -4z m72 -3 c0 -5 8 -10 17 -10 13 0
14 -3 6 -11 -7 -7 -23 -9 -38 -5 -22 6 -25 9 -15 21 14 17 30 20 30 5z m-1606
-16 c3 -8 12 -14 21 -14 8 0 15 -4 15 -10 0 -5 11 -10 25 -10 17 0 23 -4 19
-15 -4 -10 3 -18 22 -25 23 -9 26 -13 14 -21 -11 -8 -8 -9 13 -6 30 5 44 -7
29 -26 -7 -8 -6 -20 2 -35 11 -21 14 -22 25 -8 17 20 35 21 28 1 -4 -8 -2 -17
3 -20 16 -10 12 -29 -10 -53 -19 -20 -19 -22 -2 -31 15 -9 13 -10 -9 -11 -16
0 -30 -7 -34 -17 -6 -16 -8 -16 -25 4 l-18 22 -6 -22 c-7 -20 -8 -20 -14 -4
-4 10 -11 18 -15 18 -43 -5 -49 -1 -45 29 4 26 2 30 -19 30 -19 0 -23 4 -18
19 4 14 -1 20 -22 26 -15 4 -22 10 -15 12 15 6 16 83 1 83 -5 0 -7 5 -4 10 3
6 1 10 -4 10 -6 0 -11 -6 -11 -12 0 -7 -5 -5 -11 5 -5 9 -8 21 -4 26 3 5 0 13
-5 16 -17 11 14 40 44 41 13 1 27 -4 30 -12z m1553 -9 c-2 -5 -17 -10 -34 -11
-16 -1 -39 -7 -51 -13 -11 -6 -33 -12 -49 -13 -16 0 -8 -4 22 -8 l50 -7 -51
-1 c-35 -1 -56 3 -64 13 -10 13 -9 15 9 15 11 0 21 4 21 8 0 17 46 30 97 29
29 -1 51 -6 50 -12z m70 -21 c-3 -3 -12 -4 -19 -1 -8 3 -5 6 6 6 11 1 17 -2
13 -5z m77 -13 c3 -5 -5 -11 -19 -13 -20 -4 -23 -3 -14 8 13 16 25 18 33 5z
m-344 -35 c0 -2 -7 -7 -16 -10 -8 -3 -12 -2 -9 4 6 10 25 14 25 6z m-1140 -21
c-33 -19 -50 -18 -26 0 11 8 27 15 35 15 10 -1 7 -6 -9 -15z m1570 -65 c-8 -6
-28 -9 -45 -9 -28 1 -28 1 10 13 42 13 59 11 35 -4z m-1068 3 c2 -5 17 -18 33
-29 135 -94 288 -116 467 -66 76 21 84 12 10 -12 -187 -61 -367 -31 -502 84
-19 16 -30 30 -23 30 6 0 13 -3 15 -7z m1208 -7 c0 -2 -7 -6 -15 -10 -8 -3
-15 -1 -15 4 0 6 7 10 15 10 8 0 15 -2 15 -4z m-313 -42 c-3 -3 -12 -4 -19 -1
-8 3 -5 6 6 6 11 1 17 -2 13 -5z m114 -52 c-7 -2 -18 1 -23 6 -8 8 -4 9 13 5
13 -4 18 -8 10 -11z m-307 -33 c-10 -12 -40 -36 -66 -54 -27 -17 -46 -34 -43
-36 2 -3 -19 -27 -48 -55 -42 -39 -45 -41 -17 -9 19 21 42 45 50 52 20 17 0
16 -25 -1 -11 -7 -47 -23 -80 -36 -80 -30 -260 -34 -347 -7 -53 16 -60 16
-100 1 -92 -34 -111 -46 -97 -55 8 -5 10 -9 5 -9 -4 0 -1 -11 8 -25 19 -29 19
-35 4 -72 -15 -38 -18 -84 -6 -107 9 -16 7 -18 -7 -12 -14 5 -16 4 -6 -7 9
-12 7 -13 -12 -10 -29 6 -56 -22 -39 -39 16 -16 15 -28 -3 -28 -7 0 -19 8 -24
18 -7 11 -11 12 -11 4 0 -10 -4 -9 -16 3 -17 17 -70 17 -68 0 1 -5 11 -15 23
-21 33 -17 14 -24 -68 -24 -91 0 -121 15 -121 61 0 30 0 31 42 24 l41 -7 -22
33 c-12 19 -25 42 -28 52 -6 18 -42 23 -58 9 -6 -5 -21 -3 -35 4 -14 8 -20 14
-13 14 7 0 10 7 7 15 -4 8 -13 15 -21 15 -8 0 -11 -4 -8 -10 3 -6 -1 -7 -10
-4 -17 7 -65 -31 -65 -51 0 -6 -9 -21 -20 -33 -16 -16 -28 -20 -46 -16 -21 5
-25 3 -24 -12 1 -11 2 -27 1 -36 -1 -17 -2 -17 -19 0 -11 9 -17 20 -15 25 2 4
-7 11 -21 17 -26 10 -32 25 -18 46 8 12 40 13 59 1 19 -12 43 4 43 27 0 12 9
29 20 39 21 18 28 9 8 -11 -6 -6 -13 -22 -15 -34 -4 -23 -4 -23 21 2 35 36 42
66 16 73 -12 3 -35 1 -52 -4 -18 -5 -34 -7 -36 -5 -2 3 14 10 37 17 23 7 41
17 41 22 0 6 7 2 15 -9 12 -15 14 -16 15 -3 0 9 11 21 25 27 14 6 25 19 25 27
0 9 4 13 10 10 5 -3 24 9 41 26 37 38 67 44 89 19 22 -25 98 -30 200 -11 36 6
97 17 135 23 39 7 75 17 80 24 6 7 28 14 50 17 22 2 130 25 239 50 110 26 201
45 203 43 8 -8 -96 -36 -242 -66 -82 -17 -156 -35 -163 -39 -27 -15 116 -34
212 -28 114 7 176 29 292 107 49 33 91 60 93 60 2 0 -4 -10 -15 -21z m121 -32
c-8 -13 -12 -27 -8 -32 5 -4 3 -5 -3 -2 -6 3 -42 -29 -80 -72 -58 -66 -144
-142 -144 -128 0 2 41 45 91 96 71 71 89 95 78 102 -11 7 -10 9 5 9 10 0 27
11 38 25 25 32 44 33 23 2z m105 -24 l-22 -28 26 -3 c15 -2 40 6 59 19 l32 23
-24 -27 c-14 -15 -31 -27 -38 -27 -8 0 -12 -3 -10 -7 3 -5 -9 -9 -25 -10 -17
-1 -32 -4 -32 -5 -1 -2 -21 -34 -43 -73 -53 -89 -82 -126 -54 -68 12 23 34 65
51 93 34 58 36 64 15 56 -9 -3 6 16 32 43 51 53 70 60 33 14z m-1716 12 c-4
-8 -8 -15 -10 -15 -2 0 -4 7 -4 15 0 8 4 15 10 15 5 0 7 -7 4 -15z m1924 -4
c-7 -11 -16 -17 -20 -14 -10 5 10 33 23 33 5 0 4 -9 -3 -19z m-1463 -31 c-4
-17 -9 -29 -12 -26 -3 2 -2 19 2 36 4 17 9 29 12 26 3 -2 2 -19 -2 -36z m-425
-9 c0 -11 -4 -23 -10 -26 -6 -4 -10 5 -10 19 0 14 5 26 10 26 6 0 10 -9 10
-19z m610 -11 l23 -20 -46 0 c-50 0 -50 0 -41 24 8 22 36 20 64 -4z m810 -58
c-89 -75 -350 -335 -368 -364 -9 -16 -20 -28 -24 -28 -19 0 101 144 188 225
142 132 238 215 249 215 6 -1 -15 -22 -45 -48z m-1010 23 c0 -8 -4 -15 -10
-15 -5 0 -7 7 -4 15 4 8 8 15 10 15 2 0 4 -7 4 -15z m-420 -9 c0 -3 -4 -8 -10
-11 -5 -3 -10 -1 -10 4 0 6 5 11 10 11 6 0 10 -2 10 -4z m1463 -108 c-112
-116 -171 -195 -194 -260 -7 -21 -17 -38 -21 -38 -15 0 34 106 75 160 46 62
228 250 241 250 5 0 -40 -51 -101 -112z m-1440 62 c-9 -10 -63 -1 -63 9 0 4
16 5 36 3 20 -2 32 -8 27 -12z m1585 -82 c-54 -89 -108 -202 -159 -328 -21
-52 -38 -89 -39 -81 -1 37 133 334 196 434 52 84 54 62 2 -25z m183 54 c-5 -9
-33 -37 -63 -62 l-53 -45 33 40 c45 55 75 85 85 85 4 0 3 -8 -2 -18z m-1801
-6 c0 -2 -8 -10 -17 -17 -16 -13 -17 -12 -4 4 13 16 21 21 21 13z m97 -2 c-3
-3 -12 -4 -19 -1 -8 3 -5 6 6 6 11 1 17 -2 13 -5z m-21 -36 c-1 -13 -4 -25 -7
-28 -3 -3 -11 -14 -17 -25 -6 -11 -12 -14 -12 -7 0 7 -4 10 -10 7 -5 -3 -10
-2 -10 4 0 5 8 12 18 15 9 3 4 4 -11 2 -33 -4 -32 14 1 29 12 5 22 13 22 17 0
5 6 8 13 8 8 0 13 -10 13 -22z m17 -68 c-3 -11 -9 -20 -13 -20 -5 0 -6 9 -3
20 3 11 9 20 13 20 5 0 6 -9 3 -20z m1402 -114 c-14 -19 -38 -42 -53 -52 l-27
-17 25 29 c56 65 74 84 78 80 2 -3 -8 -20 -23 -40z m-1506 -18 c-14 -58 -26
-79 -26 -42 0 16 -3 42 -7 58 -6 23 -4 27 9 23 8 -4 15 -2 15 4 0 6 4 8 9 5 5
-4 5 -23 0 -48z m1371 29 c0 -2 -10 -12 -22 -23 l-23 -19 19 23 c18 21 26 27
26 19z m536 -64 c-10 -10 -19 5 -10 18 6 11 8 11 12 0 2 -7 1 -15 -2 -18z
m-869 -159 c16 -63 16 -71 -2 -71 -8 0 -12 4 -10 8 3 3 -8 12 -24 18 -30 13
-33 27 -13 74 17 40 34 29 49 -29z m533 -14 c0 -5 -5 -10 -11 -10 -5 0 -7 5
-4 10 3 6 8 10 11 10 2 0 4 -4 4 -10z m-1068 -67 c8 -10 2 -13 -26 -13 -25 0
-36 4 -36 15 0 18 46 17 62 -2z m38 -3 c0 -5 -5 -10 -11 -10 -5 0 -7 5 -4 10
3 6 8 10 11 10 2 0 4 -4 4 -10z m-710 -20 c0 -5 -8 -10 -17 -10 -15 0 -16 2
-3 10 19 12 20 12 20 0z m27 -26 c-3 -3 -12 -4 -19 -1 -8 3 -5 6 6 6 11 1 17
-2 13 -5z"/>
<path d="M1600 3681 c0 -6 5 -13 10 -16 6 -3 10 1 10 9 0 9 -4 16 -10 16 -5 0
-10 -4 -10 -9z"/>
<path d="M1700 3416 c0 -2 7 -9 15 -16 9 -7 15 -8 15 -2 0 5 -7 12 -15 16 -8
3 -15 4 -15 2z"/>
<path d="M1630 2910 c0 -6 5 -10 10 -10 6 0 10 -6 10 -14 0 -19 33 -26 53 -11
14 10 15 14 5 22 -19 15 -78 24 -78 13z"/>
<path d="M2389 2303 c12 -24 31 -39 31 -25 0 5 -10 17 -21 28 -22 19 -22 19
-10 -3z"/>
<path d="M2423 2247 c2 -6 16 -12 31 -14 34 -5 26 13 -9 19 -15 3 -24 1 -22
-5z"/>
<path d="M2597 2234 c18 -9 30 -21 27 -26 -4 -6 2 -8 14 -4 11 4 23 2 27 -4 3
-5 12 -10 18 -10 7 0 -9 14 -35 30 -27 17 -56 30 -65 30 -11 0 -5 -7 14 -16z"/>
<path d="M2698 2233 c7 -3 16 -2 19 1 4 3 -2 6 -13 5 -11 0 -14 -3 -6 -6z"/>
<path d="M2440 2206 c0 -2 9 -6 20 -9 11 -3 18 -1 14 4 -5 9 -34 13 -34 5z"/>
<path d="M2498 2193 c6 -2 18 -2 25 0 6 3 1 5 -13 5 -14 0 -19 -2 -12 -5z"/>
<path d="M2466 2160 c12 -12 27 -21 33 -19 7 3 -3 13 -21 23 l-33 19 21 -23z"/>
<path d="M2688 2153 c6 -2 18 -2 25 0 6 3 1 5 -13 5 -14 0 -19 -2 -12 -5z"/>
<path d="M2108 2133 c6 -2 18 -2 25 0 6 3 1 5 -13 5 -14 0 -19 -2 -12 -5z"/>
<path d="M3097 2050 c-8 -32 18 -45 43 -20 24 24 19 40 -14 40 -15 0 -26 -7
-29 -20z"/>
<path d="M3360 1930 c0 -5 5 -10 11 -10 5 0 7 5 4 10 -3 6 -8 10 -11 10 -2 0
-4 -4 -4 -10z"/>
<path d="M2730 1850 c34 -11 60 -11 35 0 -11 5 -29 8 -40 8 -16 0 -15 -2 5 -8z"/>
<path d="M3043 1793 c9 -2 23 -2 30 0 6 3 -1 5 -18 5 -16 0 -22 -2 -12 -5z"/>
<path d="M3320 1769 c-7 -11 -9 -23 -6 -26 8 -9 36 17 36 33 0 21 -18 17 -30
-7z"/>
<path d="M3285 1680 c-3 -5 -1 -10 4 -10 6 0 11 5 11 10 0 6 -2 10 -4 10 -3 0
-8 -4 -11 -10z"/>
<path d="M3091 1602 c-18 -33 -11 -41 18 -23 10 6 11 14 3 26 -9 17 -10 17
-21 -3z"/>
<path d="M1262 1788 c-15 -15 -16 -38 -2 -38 6 0 10 7 10 15 0 8 9 15 20 15
11 0 20 5 20 10 0 14 -33 13 -48 -2z"/>
<path d="M1483 1563 c-33 -6 -28 -23 7 -23 20 0 30 5 30 15 0 8 -3 14 -7 14
-5 -1 -18 -4 -30 -6z"/>
<path d="M1520 1520 c-9 -6 -10 -10 -3 -10 6 0 15 5 18 10 8 12 4 12 -15 0z"/>
<path d="M1360 1434 c0 -9 7 -14 17 -12 25 5 28 28 4 28 -12 0 -21 -6 -21 -16z"/>
<path d="M1455 1390 c4 -6 11 -8 16 -5 14 9 11 15 -7 15 -8 0 -12 -5 -9 -10z"/>
<path d="M1945 5094 c14 -15 25 -30 25 -35 0 -4 11 -21 24 -36 24 -29 85 -214
105 -318 26 -134 124 -320 186 -354 17 -9 44 -26 60 -38 23 -16 35 -19 49 -11
10 5 26 8 36 5 24 -6 50 31 50 72 0 46 23 52 99 24 36 -13 78 -32 93 -43 15
-11 33 -20 41 -20 17 0 39 -25 55 -62 6 -15 29 -39 52 -53 22 -14 64 -47 94
-74 58 -53 92 -69 109 -52 7 7 19 4 40 -11 20 -14 47 -22 76 -23 94 -2 246
-31 314 -60 21 -8 64 -40 96 -69 42 -39 75 -60 115 -72 53 -17 60 -17 148 0
51 10 111 26 133 36 22 10 76 30 119 45 44 15 89 33 100 40 12 7 54 21 94 31
l74 19 19 -24 c26 -32 18 -55 -46 -121 -45 -48 -95 -131 -95 -159 0 -21 -36
-70 -62 -86 -18 -10 -27 -24 -27 -38 1 -25 -16 -131 -31 -192 -5 -22 -11 -85
-14 -140 -5 -87 -3 -103 13 -124 l19 -25 -87 -33 c-47 -19 -102 -41 -122 -50
-30 -12 -46 -13 -92 -3 -48 10 -60 9 -89 -6 -18 -10 -37 -17 -42 -16 -5 2 -5
-7 -2 -20 22 -72 27 -109 23 -164 -5 -70 -12 -85 -31 -78 -10 4 -15 32 -18 98
-3 76 -8 98 -27 124 -21 30 -62 48 -44 20 13 -21 14 -58 2 -58 -6 0 -24 9 -39
20 l-28 20 -26 -30 c-25 -30 -25 -35 -23 -158 l2 -127 68 -88 c38 -48 77 -92
88 -97 19 -11 18 -13 32 55 3 11 5 0 6 -25 2 -56 19 -133 31 -140 6 -3 11 -20
13 -36 4 -37 66 -132 104 -161 16 -11 51 -32 78 -46 28 -14 56 -35 63 -46 9
-16 22 -21 52 -21 43 0 150 32 187 56 28 17 126 55 131 50 4 -4 11 -81 14
-152 1 -18 -6 -39 -15 -49 -28 -28 -48 -75 -42 -96 4 -11 2 -25 -3 -32 -6 -7
-20 -41 -32 -76 -12 -36 -28 -74 -36 -85 -8 -12 -14 -44 -14 -77 0 -52 3 -60
36 -93 38 -38 40 -66 4 -66 -27 0 -25 -20 5 -84 23 -48 55 -89 134 -171 33
-34 81 -125 81 -153 0 -11 13 -37 28 -58 23 -32 27 -44 19 -62 -6 -12 -17 -22
-25 -22 -35 0 14 -229 56 -257 61 -43 65 -70 10 -95 -40 -19 -62 -48 -97 -125
-22 -47 -23 -56 -12 -96 12 -40 11 -48 -8 -85 -27 -52 -26 -69 2 -111 12 -19
30 -46 39 -60 9 -14 17 -34 17 -43 1 -17 23 -18 321 -18 l320 0 0 2560 0 2560
-1600 0 -1599 0 24 -26z m2405 -2052 c64 -44 123 -117 150 -189 27 -72 42
-174 34 -234 -4 -33 -3 -49 4 -49 43 0 31 -112 -15 -133 -22 -10 -28 -8 -44
11 l-18 23 -15 -30 c-19 -35 -53 -61 -81 -61 -12 0 -40 19 -63 43 -48 49 -53
79 -23 136 35 65 101 212 101 225 0 7 9 22 21 35 l21 22 -51 78 c-34 52 -64
85 -90 99 -35 20 -44 40 -32 70 3 9 52 -14 101 -46z"/>
<path d="M2135 3930 c4 -14 10 -54 14 -90 11 -97 61 -192 61 -116 0 40 -52
202 -70 220 -10 8 -11 5 -5 -14z"/>
<path d="M2027 3933 c-7 -12 11 -53 22 -53 6 0 6 11 0 30 -11 31 -15 35 -22
23z"/>
<path d="M2235 3833 c4 -32 7 -78 6 -102 -3 -68 22 -47 33 28 7 51 6 69 -7 97
-26 54 -41 43 -32 -23z"/>
<path d="M2202 3668 c6 -18 28 -21 28 -4 0 9 -7 16 -16 16 -9 0 -14 -5 -12
-12z"/>
<path d="M2381 3633 c1 -31 35 -98 43 -85 4 6 -2 32 -13 57 -21 47 -32 57 -30
28z"/>
<path d="M2636 3533 c-9 -9 -7 -56 3 -71 4 -8 17 -12 29 -10 20 3 20 3 -3 45
-12 23 -25 40 -29 36z"/>
<path d="M2707 3470 c5 -20 39 -50 56 -50 10 0 -44 68 -55 69 -3 1 -4 -8 -1
-19z"/>
<path d="M2800 3480 c0 -5 5 -10 11 -10 5 0 7 5 4 10 -3 6 -8 10 -11 10 -2 0
-4 -4 -4 -10z"/>
<path d="M1110 3188 c1 -35 15 -58 42 -67 37 -13 58 -14 40 -2 -8 4 -13 11
-13 14 0 4 -7 20 -17 37 -17 30 -52 42 -52 18z"/>
<path d="M3504 3047 c-12 -6 -38 -25 -58 -41 -34 -27 -37 -28 -61 -12 l-25 16
0 -83 c0 -46 3 -87 7 -90 3 -4 22 23 41 60 39 77 83 129 127 149 23 10 25 13
10 13 -11 1 -30 -5 -41 -12z"/>
<path d="M580 2471 c-13 -25 -13 -31 0 -31 6 0 10 7 10 15 0 8 9 15 20 15 11
0 20 5 20 10 0 18 -39 11 -50 -9z"/>
<path d="M638 2440 c-35 -5 -36 -6 -22 -25 12 -16 16 -17 23 -6 6 9 18 11 34
7 14 -3 29 -2 32 4 3 5 0 10 -9 10 -8 0 -16 3 -18 8 -1 4 -20 5 -40 2z"/>
<path d="M3500 2360 c0 -5 5 -10 10 -10 6 0 10 5 10 10 0 6 -4 10 -10 10 -5 0
-10 -4 -10 -10z"/>
<path d="M3626 2148 c-7 -34 -3 -44 13 -33 13 8 15 52 2 59 -5 3 -11 -8 -15
-26z"/>
<path d="M990 1790 c0 -5 5 -10 10 -10 6 0 10 5 10 10 0 6 -4 10 -10 10 -5 0
-10 -4 -10 -10z"/>
<path d="M880 1761 c0 -4 -11 -20 -25 -35 -25 -27 -22 -30 23 -29 6 1 12 -3
12 -9 0 -5 5 -6 10 -3 6 3 10 17 10 31 0 13 5 24 11 24 6 0 4 7 -5 15 -16 16
-36 20 -36 6z"/>
<path d="M952 1745 c-14 -31 -15 -35 -4 -35 4 0 13 14 19 30 14 36 1 40 -15 5z"/>
<path d="M940 1679 c0 -5 5 -7 10 -4 6 3 10 8 10 11 0 2 -4 4 -10 4 -5 0 -10
-5 -10 -11z"/>
<path d="M808 1673 c6 -2 12 -11 12 -19 0 -8 5 -14 10 -14 7 0 7 6 0 20 -6 11
-16 20 -23 19 -9 0 -9 -2 1 -6z"/>
<path d="M850 1670 c0 -5 5 -10 10 -10 6 0 10 5 10 10 0 6 -4 10 -10 10 -5 0
-10 -4 -10 -10z"/>
<path d="M892 1651 c-8 -4 -14 -12 -15 -17 -1 -5 -5 -8 -9 -7 -13 5 -31 -28
-21 -38 7 -7 16 -3 29 14 11 13 24 22 30 20 6 -2 17 4 25 14 13 16 12 17 -3 5
-10 -8 -19 -9 -22 -3 -3 5 0 12 6 14 7 3 9 6 3 6 -5 0 -16 -3 -23 -8z"/>
<path d="M1037 1653 c-4 -3 -7 -11 -7 -17 0 -6 5 -5 12 2 6 6 9 14 7 17 -3 3
-9 2 -12 -2z"/>
<path d="M1046 1605 c-3 -8 -1 -15 4 -15 6 0 10 7 10 15 0 8 -2 15 -4 15 -2 0
-6 -7 -10 -15z"/>
<path d="M900 1600 c-8 -5 -11 -12 -8 -16 4 -3 14 1 23 10 18 17 9 21 -15 6z"/>
<path d="M976 1585 c-3 -9 0 -15 8 -15 7 0 19 7 26 15 10 12 9 15 -8 15 -11 0
-22 -7 -26 -15z"/>
<path d="M850 1540 c0 -5 5 -10 10 -10 6 0 10 5 10 10 0 6 -4 10 -10 10 -5 0
-10 -4 -10 -10z"/>
<path d="M895 1501 c-6 -11 9 -23 19 -14 9 9 7 23 -3 23 -6 0 -12 -4 -16 -9z"/>
<path d="M847 1465 c-9 -19 -21 -35 -27 -35 -5 0 -10 -4 -10 -10 0 -15 33 0
52 24 18 22 24 56 10 56 -5 0 -16 -16 -25 -35z"/>
<path d="M790 1389 c0 -5 5 -7 10 -4 6 3 10 8 10 11 0 2 -4 4 -10 4 -5 0 -10
-5 -10 -11z"/>
<path d="M950 1250 c0 -5 7 -10 15 -10 8 0 15 5 15 10 0 6 -7 10 -15 10 -8 0
-15 -4 -15 -10z"/>
<path d="M982 1227 c-6 -6 -12 -28 -14 -47 -3 -30 -8 -36 -33 -41 -25 -6 -23
-6 8 -4 21 2 41 5 43 7 5 6 15 98 10 98 -2 0 -8 -6 -14 -13z"/>
<path d="M1016 1225 c-9 -26 -7 -32 5 -12 6 10 9 21 6 23 -2 3 -7 -2 -11 -11z"/>
<path d="M937 1183 c-4 -3 -7 -11 -7 -17 0 -6 5 -5 12 2 6 6 9 14 7 17 -3 3
-9 2 -12 -2z"/>
<path d="M2965 1170 c-3 -5 1 -10 9 -10 9 0 16 5 16 10 0 6 -4 10 -9 10 -6 0
-13 -4 -16 -10z"/>
<path d="M1465 861 c-6 -11 9 -23 19 -14 9 9 7 23 -3 23 -6 0 -12 -4 -16 -9z"/>
<path d="M1190 830 c0 -11 8 -16 43 -24 17 -4 26 -3 23 3 -8 13 -66 32 -66 21z"/>
<path d="M720 800 c0 -5 5 -10 10 -10 6 0 10 5 10 10 0 6 -4 10 -10 10 -5 0
-10 -4 -10 -10z"/>
<path d="M774 803 c18 -5 18 -6 -5 -19 -13 -7 -18 -13 -10 -14 8 0 20 -8 27
-17 11 -15 15 -15 22 -5 5 8 13 13 18 12 5 -1 10 3 12 8 3 11 -54 43 -72 41
-6 -1 -2 -4 8 -6z"/>
<path d="M661 769 c-1 -9 8 -19 19 -22 11 -3 20 -1 20 4 0 5 -6 9 -14 9 -8 0
-17 6 -19 13 -4 7 -6 6 -6 -4z"/>
<path d="M710 769 c0 -5 5 -7 10 -4 6 3 10 8 10 11 0 2 -4 4 -10 4 -5 0 -10
-5 -10 -11z"/>
<path d="M1016 771 c-7 -10 36 -23 44 -13 3 4 4 6 1 5 -2 -1 -12 2 -22 7 -10
6 -20 6 -23 1z"/>
<path d="M1940 762 c0 -14 11 -21 26 -15 21 8 17 23 -6 23 -11 0 -20 -4 -20
-8z"/>
<path d="M842 743 c-10 -4 -9 -9 4 -24 20 -22 12 -38 -11 -19 -12 10 -15 10
-15 -1 0 -13 38 -44 45 -37 2 2 6 14 10 28 7 28 -13 60 -33 53z"/>
<path d="M1726 736 c4 -11 0 -16 -14 -16 -40 0 -52 -10 -42 -35 6 -16 6 -27
-1 -31 -6 -3 -9 -15 -6 -25 3 -11 0 -19 -7 -19 -6 0 -17 -9 -24 -20 -7 -11
-19 -20 -27 -20 -8 0 -15 -7 -15 -15 0 -8 -4 -15 -10 -15 -18 0 -11 28 9 35
22 7 35 32 20 40 -5 4 -7 9 -5 13 2 4 -14 7 -35 7 -21 1 -39 -3 -39 -7 0 -4 7
-8 15 -8 19 0 19 -9 -2 -32 -13 -14 -13 -18 -2 -18 10 0 15 -14 17 -45 3 -51
-6 -55 -42 -21 l-26 23 25 -5 c27 -5 34 15 13 36 -16 16 -23 15 -42 -4 -9 -8
-16 -10 -16 -4 0 6 7 13 15 16 12 5 12 8 0 20 -17 17 -75 19 -75 2 -1 -8 -6
-6 -14 5 -15 20 -41 23 -33 4 3 -8 -3 -13 -14 -13 -22 0 -23 5 -5 29 11 14 23
17 53 13 21 -3 32 -3 25 0 -6 3 -10 10 -6 15 3 5 -2 12 -11 16 -10 3 -20 1
-24 -5 -9 -15 -61 -27 -61 -13 0 6 -7 11 -15 11 -8 0 -15 -4 -15 -10 0 -5 -15
-9 -34 -8 -20 1 -33 6 -30 12 2 6 0 17 -5 25 -8 12 -12 13 -26 1 -9 -7 -13
-20 -10 -29 4 -12 2 -12 -9 2 -10 13 -21 16 -42 11 -23 -6 -26 -4 -21 10 6 14
3 15 -14 5 -11 -6 -18 -17 -15 -24 9 -23 -10 -26 -32 -4 -20 18 -26 17 -23 -3
2 -14 -17 -8 -23 7 -4 12 -10 13 -31 3 -19 -8 -31 -8 -50 0 -14 7 -30 12 -34
12 -12 0 -8 -33 4 -43 6 -4 -1 -6 -14 -4 -13 2 -29 10 -35 18 -19 25 -60 46
-104 54 -35 6 -42 4 -42 -10 0 -16 -21 -16 -83 2 -14 4 -18 0 -15 -13 3 -15
11 -18 43 -16 l40 2 -31 -14 c-18 -8 -34 -19 -38 -24 -6 -11 -89 -9 -143 3
-21 5 -30 12 -26 21 6 17 -1 17 -46 4 -40 -11 -57 -4 -40 16 6 8 9 17 5 21 -7
8 -36 -29 -30 -38 2 -4 -3 -9 -11 -13 -8 -3 -18 1 -22 8 -12 20 -67 45 -99 45
-16 0 -58 2 -93 5 -59 4 -62 3 -37 -9 15 -8 32 -12 39 -10 20 7 50 -22 44 -44
-4 -17 2 -21 50 -27 66 -8 53 -24 -20 -24 -30 0 -46 -4 -42 -10 3 -5 -3 -10
-14 -10 -11 0 -23 -5 -26 -11 -4 -6 -13 -8 -21 -5 -8 3 -15 0 -15 -7 -1 -7 -3
-22 -4 -34 -1 -14 9 -31 31 -50 19 -15 34 -31 34 -35 0 -12 47 -58 59 -58 15
0 14 -27 -2 -33 -17 -6 -100 9 -126 23 -29 15 -46 13 -32 -4 8 -10 6 -19 -9
-39 -22 -28 -27 -83 -7 -90 10 -4 10 -6 0 -6 -10 -1 -13 -28 -13 -101 l0 -100
820 0 c451 0 820 2 820 5 0 3 -7 18 -16 33 -15 25 -14 24 15 -6 l31 -32 469 0
c366 0 470 3 474 13 4 9 6 9 6 0 1 -18 157 -18 165 0 5 9 7 9 12 0 3 -7 17
-13 30 -13 l24 0 -22 35 c-18 27 -35 39 -75 51 -29 8 -53 20 -53 25 0 5 -4 9
-10 9 -5 0 -10 -7 -10 -15 0 -8 9 -15 19 -15 28 0 35 -17 9 -23 -11 -3 -33 0
-48 8 -15 8 -31 11 -35 7 -5 -4 -5 -2 -2 4 4 7 -5 14 -24 18 -22 4 -29 10 -26
20 3 8 1 17 -6 19 -7 2 -9 8 -5 11 3 4 16 -2 27 -13 25 -25 35 -27 27 -6 -3 8
1 21 9 29 21 20 19 24 -9 19 -26 -5 -82 22 -90 43 -3 7 10 4 30 -8 33 -19 39
-20 96 -8 65 14 60 27 -12 30 -19 1 -28 4 -20 7 8 3 18 11 22 16 10 16 -10 47
-30 47 -14 -1 -13 -4 5 -19 18 -15 20 -20 8 -25 -8 -3 -18 1 -22 8 -5 7 -14
15 -22 17 -11 4 -10 8 4 22 23 23 14 31 -16 15 -28 -15 -36 -43 -18 -64 9 -11
8 -14 -5 -14 -16 0 -20 14 -16 60 2 24 1 24 -17 7 -11 -9 -25 -17 -31 -17 -7
0 -12 -6 -12 -12 -1 -16 -49 -52 -57 -44 -4 3 -1 6 7 6 10 0 10 3 0 15 -10 13
-9 15 9 15 14 0 25 9 31 26 7 17 15 24 25 20 9 -3 15 1 15 10 0 17 -38 11 -55
-10 -5 -7 -26 -12 -45 -11 -24 0 -42 -7 -57 -22 -25 -26 -38 -30 -30 -9 7 17
-33 30 -47 16 -7 -7 -4 -10 6 -10 23 0 11 -41 -14 -47 -10 -3 -18 -13 -18 -22
0 -9 -3 -12 -8 -6 -4 6 -29 11 -56 12 -27 1 -54 7 -60 13 -8 9 -4 10 17 6 15
-3 38 -8 52 -11 18 -4 23 -2 19 8 -3 8 2 20 11 27 24 20 18 29 -20 26 -36 -2
-80 18 -70 34 3 4 2 15 -1 24 -5 12 -10 14 -19 6 -10 -8 -14 -3 -17 20 -3 17
0 30 6 30 7 0 7 3 1 8 -5 4 -10 13 -11 20 -2 28 -5 32 -21 32 -17 -1 -17 -1 0
-14 9 -7 17 -16 17 -20 0 -12 -35 -2 -47 14 -6 8 -15 12 -19 7 -4 -4 -2 -7 4
-7 20 0 13 -17 -8 -23 -11 -3 -18 -1 -15 3 3 5 1 11 -4 14 -5 4 -12 2 -16 -4
-7 -11 -25 -4 -25 10 0 5 8 11 18 13 15 4 15 5 -1 6 -11 1 -21 -7 -24 -19 -3
-11 -9 -20 -13 -20 -18 0 -80 73 -79 93 0 18 2 19 7 5 10 -23 59 -60 66 -49 4
5 2 12 -4 16 -6 4 -4 12 6 22 11 11 18 13 23 5 4 -6 23 -9 49 -5 51 7 46 16
-11 20 -22 2 -45 7 -50 12 -6 6 -15 4 -24 -5 -21 -21 -33 -17 -33 11 0 14 5
25 11 25 5 0 7 -5 3 -11 -4 -7 -1 -10 7 -7 23 7 23 45 0 51 -13 3 -18 1 -15
-8 3 -7 -2 -15 -10 -18 -9 -4 -16 -1 -16 6 0 8 -3 8 -9 -2 -6 -9 -16 -11 -27
-7 -18 7 -17 9 6 28 l25 21 -24 -8 c-16 -5 -21 -4 -17 4 4 6 16 11 27 11 11 0
27 6 34 14 18 18 0 36 -36 36 -15 0 -31 5 -34 11 -4 6 -14 8 -24 5 -13 -5 -13
-3 2 8 21 16 16 21 -30 31 -28 5 -32 4 -27 -9z m-781 -126 c-3 -5 -11 -10 -16
-10 -6 0 -7 5 -4 10 3 6 11 10 16 10 6 0 7 -4 4 -10z m-472 -11 c-8 -8 -16 -8
-30 0 -16 9 -14 10 12 11 21 0 26 -3 18 -11z m143 -39 c0 -20 -7 -25 -19 -14
-7 7 2 34 12 34 4 0 7 -9 7 -20z m101 -2 c-3 -8 -6 -5 -6 6 -1 11 2 17 5 13 3
-3 4 -12 1 -19z m-137 2 c0 -5 -4 -10 -10 -10 -5 0 -10 5 -10 10 0 6 5 10 10
10 6 0 10 -4 10 -10z m-294 -10 c8 0 14 -4 14 -10 0 -14 -37 -12 -44 3 -5 10
-7 10 -12 0 -3 -7 -13 -13 -22 -13 -13 0 -12 3 4 15 10 8 25 12 32 10 8 -3 20
-5 28 -5z m99 -20 c22 -16 56 -37 75 -47 37 -18 60 -37 60 -48 0 -11 -64 7
-75 20 -5 7 -27 18 -47 25 -26 8 -38 17 -38 30 0 10 -7 26 -16 34 -25 26 -2
18 41 -14z m-225 -10 c0 -5 -2 -10 -4 -10 -3 0 -8 5 -11 10 -3 6 -1 10 4 10 6
0 11 -4 11 -10z m157 -16 c-3 -3 -12 -4 -19 -1 -8 3 -5 6 6 6 11 1 17 -2 13
-5z m883 -44 c0 -5 15 -10 33 -11 28 0 29 -1 10 -9 -12 -5 -25 -15 -30 -23 -5
-9 -16 -11 -33 -6 -14 4 -19 7 -12 8 6 1 12 12 12 26 0 14 5 25 10 25 6 0 10
-4 10 -10z m267 -17 c30 -20 29 -23 -7 -20 -16 1 -30 5 -30 10 0 4 -15 7 -34
7 -35 0 -52 11 -39 24 11 10 84 -4 110 -21z m-962 -41 c-3 -3 -11 0 -18 7 -9
10 -8 11 6 5 10 -3 15 -9 12 -12z m1461 -21 c0 -15 -3 -17 -13 -9 -7 6 -10 14
-7 19 9 15 20 10 20 -10z m-1486 -1 c13 -8 13 -10 -2 -10 -9 0 -20 5 -23 10
-8 13 5 13 25 0z m750 6 c0 -3 -4 -8 -10 -11 -5 -3 -10 -1 -10 4 0 6 5 11 10
11 6 0 10 -2 10 -4z m443 -63 c-7 -2 -19 -2 -25 0 -7 3 -2 5 12 5 14 0 19 -2
13 -5z m833 -87 c-2 -14 1 -27 7 -30 7 -3 6 -5 -3 -5 -20 -1 -67 36 -58 45 4
4 14 1 23 -6 12 -10 16 -9 21 4 9 24 15 19 10 -8z m-173 7 c-7 -2 -21 -2 -30
0 -10 3 -4 5 12 5 17 0 24 -2 18 -5z m-2233 -27 c0 -3 -4 -8 -10 -11 -5 -3
-10 -1 -10 4 0 6 5 11 10 11 6 0 10 -2 10 -4z m970 -16 c0 -17 -2 -19 -14 -8
-14 13 -12 28 5 28 5 0 9 -9 9 -20z m525 0 c3 -6 -1 -7 -9 -4 -18 7 -21 14 -7
14 6 0 13 -4 16 -10z m855 -20 c0 -5 13 -10 29 -10 17 0 33 5 36 10 3 6 12 10
18 10 7 0 3 -7 -7 -15 -11 -8 -16 -15 -10 -15 5 0 2 -5 -6 -10 -13 -9 -13 -11
0 -20 9 -6 10 -10 3 -10 -6 0 -19 7 -27 16 -9 8 -22 12 -28 8 -7 -4 -10 -3 -5
1 4 5 0 17 -10 27 -9 11 -11 18 -5 18 7 0 12 -4 12 -10z m-1172 -38 c-2 -18
-9 -26 -25 -27 -18 -1 -20 2 -12 22 5 13 6 23 3 23 -3 0 -3 4 1 10 11 18 36
-2 33 -28z m1392 -97 c7 -9 10 -18 7 -22 -8 -7 -37 15 -37 28 0 14 16 11 30
-6z m55 -15 c10 -11 13 -20 7 -20 -7 0 -12 5 -12 10 0 6 -7 10 -15 10 -8 0
-15 5 -15 10 0 16 15 12 35 -10z"/>
<path d="M1290 730 c0 -5 5 -10 10 -10 6 0 10 5 10 10 0 6 -4 10 -10 10 -5 0
-10 -4 -10 -10z"/>
<path d="M1995 730 c-3 -5 -2 -10 4 -10 5 0 13 5 16 10 3 6 2 10 -4 10 -5 0
-13 -4 -16 -10z"/>
<path d="M275 710 c3 -5 8 -10 11 -10 2 0 4 5 4 10 0 6 -5 10 -11 10 -5 0 -7
-4 -4 -10z"/>
<path d="M755 710 c3 -5 10 -10 16 -10 5 0 9 5 9 10 0 6 -7 10 -16 10 -8 0
-12 -4 -9 -10z"/>
<path d="M303 693 c-7 -2 -13 -9 -13 -14 0 -14 26 -10 40 6 10 12 10 15 -1 14
-8 0 -20 -3 -26 -6z"/>
<path d="M2019 684 c-12 -14 -9 -16 21 -13 19 2 38 8 42 14 5 6 8 5 8 -2 0 -7
10 -13 21 -13 18 0 19 2 9 15 -17 20 -84 19 -101 -1z"/>
<path d="M1331 674 c0 -11 3 -14 6 -6 3 7 2 16 -1 19 -3 4 -6 -2 -5 -13z"/>
<path d="M928 663 c7 -3 16 -2 19 1 4 3 -2 6 -13 5 -11 0 -14 -3 -6 -6z"/>
<path d="M1443 630 c1 -12 8 -20 19 -20 24 0 23 17 -1 30 -17 8 -20 7 -18 -10z"/>
<path d="M2522 641 c-7 -4 -20 -20 -27 -34 -12 -24 -12 -27 3 -27 9 0 26 -7
36 -15 11 -8 34 -14 50 -14 24 1 26 3 9 6 -25 5 -32 23 -9 23 11 0 11 6 -2 35
-16 35 -34 43 -60 26z"/>
<path d="M1490 636 c0 -2 7 -6 15 -10 8 -3 15 -1 15 4 0 6 -7 10 -15 10 -8 0
-15 -2 -15 -4z"/>
<path d="M585 620 c3 -5 10 -10 16 -10 5 0 9 5 9 10 0 6 -7 10 -16 10 -8 0
-12 -4 -9 -10z"/>
<path d="M2190 550 c-12 -8 -10 -10 8 -10 13 0 20 4 17 10 -7 12 -6 12 -25 0z"/>
<path d="M8 533 c7 -3 16 -2 19 1 4 3 -2 6 -13 5 -11 0 -14 -3 -6 -6z"/>
<path d="M2315 530 c-3 -5 3 -10 14 -10 12 0 21 5 21 10 0 6 -6 10 -14 10 -8
0 -18 -4 -21 -10z"/>
<path d="M2666 501 c-8 -12 21 -34 33 -27 6 4 8 13 4 21 -6 17 -29 20 -37 6z"/>
<path d="M2280 460 c0 -5 4 -10 9 -10 6 0 13 5 16 10 3 6 -1 10 -9 10 -9 0
-16 -4 -16 -10z"/>
<path d="M2580 459 c0 -5 5 -7 10 -4 6 3 10 8 10 11 0 2 -4 4 -10 4 -5 0 -10
-5 -10 -11z"/>
<path d="M2340 450 c0 -5 5 -10 10 -10 6 0 10 5 10 10 0 6 -4 10 -10 10 -5 0
-10 -4 -10 -10z"/>
<path d="M2110 439 c0 -5 5 -7 10 -4 6 3 10 8 10 11 0 2 -4 4 -10 4 -5 0 -10
-5 -10 -11z"/>
<path d="M2126 405 c-3 -9 0 -15 8 -15 7 0 19 7 26 15 10 12 9 15 -8 15 -11 0
-22 -7 -26 -15z"/>
<path d="M2548 413 c7 -3 16 -2 19 1 4 3 -2 6 -13 5 -11 0 -14 -3 -6 -6z"/>
<path d="M2610 400 c-9 -6 -10 -10 -3 -10 6 0 15 5 18 10 8 12 4 12 -15 0z"/>
<path d="M2163 376 c-15 -7 -23 -19 -22 -36 l0 -25 10 23 c5 13 12 21 17 18 4
-2 13 4 20 15 13 21 8 22 -25 5z"/>
<path d="M2547 359 c-9 -6 -15 -14 -12 -20 10 -15 23 -10 35 11 12 22 4 25
-23 9z"/>
<path d="M2630 144 c0 -17 15 -25 34 -18 24 9 19 21 -9 26 -16 4 -25 1 -25 -8z"/>
<path d="M2744 119 c-7 -12 -8 -12 37 -27 49 -17 69 -15 46 3 -11 7 -25 11
-33 8 -8 -3 -14 -1 -14 5 0 14 -28 23 -36 11z"/>
</g>
</svg>
