<svg preserveAspectRatio="xMidYMid meet" data-bbox="65.9 27.5 299.9 16.3" viewBox="65.9 27.5 299.9 16.3" xmlns="http://www.w3.org/2000/svg" data-type="color" role="presentation" aria-hidden="true" aria-labelledby="svgcid-5ary7j-3d1e7o"><title id="svgcid-5ary7j-3d1e7o"></title>
    <g>
        <path d="M155.2 35.1c.3 0 .5-.1.7-.2.4-.2.7-.4.9-.6l.7-.7c.9-.8 2.4-.6 3.2.3.4.5.6 1.1.5 1.8-.1 1-.9 1.8-1.7 1.9-.8.2-1.5 0-2.1-.5-.3-.2-.5-.5-.8-.7-.3-.3-.7-.5-1.1-.6-.1 0-.2 0-.4-.1 0 .2 0 .4.1.5.1.4.4.8.7 1.2.2.3.5.5.7.8.7.9.5 2.2-.1 2.9-.8.9-2.2.9-3 .4-.7-.5-1-1.1-1-1.9 0-.6.2-1.1.6-1.6.2-.3.5-.5.7-.7.3-.3.5-.7.6-1.2v-.3c-.2 0-.3 0-.5.1-.4.2-.8.4-1.2.7-.3.2-.5.5-.8.7-.9.7-2.3.6-3.1-.3-.4-.5-.6-1.1-.5-1.7.1-1 .9-1.9 1.8-2 .7-.1 1.4 0 1.9.5.2.2.5.4.7.6.4.3.8.6 1.2.7.1 0 .3 0 .4.1 0-.1 0-.3-.1-.4-.1-.4-.3-.8-.6-1.1-.2-.3-.5-.5-.7-.8-.2-.3-.4-.6-.5-.9-.3-1.4.6-2.6 1.8-2.8 1.5-.3 2.5.8 2.7 1.8.1.7 0 1.4-.5 2-.2.2-.4.5-.7.7-.3.3-.6.7-.7 1.2.2-.1.2.1.2.2z" fill="#383839" data-color="1"></path>
        <path d="M65.9 27.7h9.8V30h-7.5v4.7h6.4v2.1h-6.4v6.8h-2.3V27.7z" fill="#383839" data-color="1"></path>
        <path d="M82.3 27.7h9.8V30h-7.5v4.5H91v2.1h-6.4v4.7h7.5v2.3h-9.8V27.7z" fill="#383839" data-color="1"></path>
        <path d="M99.1 27.7h2.3v13.6h7.5v2.3h-9.8V27.7z" fill="#383839" data-color="1"></path>
        <path d="M116 27.7h2.3v15.9H116V27.7z" fill="#383839" data-color="1"></path>
        <path d="M130.4 37.6l-3.4 5.9h-2.6l4.7-8.1-4.4-7.7h2.6l3.1 5.5 3.1-5.5h2.6l-4.5 7.7 4.8 8.1h-2.6l-3.4-5.9z" fill="#383839" data-color="1"></path>
        <path d="M178.3 34.8h5.5V38c0 1.6-.6 2.9-1.6 4s-2.3 1.6-3.9 1.6c-1.2 0-2.2-.3-3-.9-.8-.6-1.4-1.2-1.8-1.9-.1-.2-.2-.5-.3-.7-.1-.2-.2-.5-.2-.8-.1-.6-.2-1.9-.2-3.7 0-1.8.1-3.1.2-3.7.1-.6.3-1.1.5-1.5.4-.7 1-1.4 1.8-2 .8-.6 1.8-.9 3-.9 1.5 0 2.7.5 3.6 1.4.9.9 1.5 2 1.8 3.3h-2.5c-.2-.6-.5-1.2-1-1.6-.5-.4-1.2-.7-1.9-.7-.5 0-1 .1-1.4.3-.4.2-.7.5-1 .8-.3.3-.5.8-.6 1.3-.1.6-.2 1.6-.2 3.2s.1 2.6.2 3.2c.1.6.3 1 .6 1.3.2.3.6.6 1 .8.4.2.9.4 1.4.4.9 0 1.7-.3 2.3-1 .6-.6.9-1.4.9-2.4V37h-3.1v-2.2z" fill="#383839" data-color="1"></path>
        <path d="M191.4 27.7h2.3v15.9h-2.3V27.7z" fill="#383839" data-color="1"></path>
        <path d="M201.6 27.7h2.2l7 11.3V27.7h2.3v15.9h-2.2L204 32.2v11.3h-2.3V27.7z" fill="#383839" data-color="1"></path>
        <path d="M226.3 34.8h5.5V38c0 1.6-.6 2.9-1.6 4s-2.3 1.6-3.9 1.6c-1.2 0-2.2-.3-3-.9-.8-.6-1.4-1.2-1.8-1.9-.1-.2-.2-.5-.3-.7-.1-.2-.2-.5-.2-.8-.1-.6-.2-1.9-.2-3.7 0-1.8.1-3.1.2-3.7.1-.6.3-1.1.5-1.5.4-.7 1-1.4 1.8-2 .8-.6 1.8-.9 3-.9 1.5 0 2.7.5 3.6 1.4.9.9 1.5 2 1.8 3.3h-2.5c-.2-.6-.5-1.2-1-1.6-.5-.4-1.2-.7-1.9-.7-.5 0-1 .1-1.4.3-.4.2-.7.5-1 .8-.3.3-.5.8-.6 1.3-.1.6-.2 1.6-.2 3.2s.1 2.6.2 3.2c.1.6.3 1 .6 1.3.2.3.6.6 1 .8.4.2.9.4 1.4.4.9 0 1.7-.3 2.3-1 .6-.6.9-1.4.9-2.4V37h-3.1v-2.2z" fill="#383839" data-color="1"></path>
        <path d="M239.4 27.7h9.8V30h-7.5v4.5h6.4v2.1h-6.4v4.7h7.5v2.3h-9.8V27.7z" fill="#383839" data-color="1"></path>
        <path d="M256.2 27.7h6c1.3 0 2.3.3 3.1 1 1 .8 1.5 1.9 1.5 3.4 0 2.2-1 3.6-3 4.4l3.6 7h-2.8l-3.2-6.8h-3v6.8h-2.3V27.7zm2.3 6.9h3.5c.9 0 1.5-.3 2-.8.4-.5.6-1.1.6-1.7 0-.8-.3-1.4-.8-1.8-.4-.3-1-.5-1.7-.5h-3.7v4.8z" fill="#383839" data-color="1"></path>
        <path d="M284.3 39.7c1.2 1 2.7 1.6 4.4 1.6 2 0 3-.8 3-2.2 0-1.2-.7-1.9-2-2.1-.6-.1-1.3-.2-2-.3-1.3-.2-2.3-.7-3-1.5-.7-.8-1.1-1.8-1.1-2.9 0-1.4.4-2.5 1.3-3.4.9-.8 2.1-1.3 3.7-1.3 1.9 0 3.6.6 5 1.6l-1.3 2c-1.2-.8-2.4-1.2-3.8-1.2-.7 0-1.3.2-1.8.6-.5.4-.8 1-.8 1.7 0 .5.2.9.5 1.2.3.4.9.6 1.7.8.4.1 1 .2 1.7.3 1.4.2 2.5.7 3.2 1.6.7.8 1 1.8 1 3-.1 3-1.9 4.6-5.4 4.6-2.3 0-4.2-.7-5.9-2.2l1.6-1.9z" fill="#383839" data-color="1"></path>
        <path d="M309.2 40h-5.8l-1.2 3.5h-2.5l5.6-15.9h2l5.6 15.9h-2.5l-1.2-3.5zm-.7-2.2l-2.2-6.9-2.2 6.9h4.4z" fill="#383839" data-color="1"></path>
        <path d="M319.4 27.7h2.3v13.6h7.5v2.3h-9.8V27.7z" fill="#383839" data-color="1"></path>
        <path d="M335.7 35.6c0-1.8.1-3.1.2-3.7.1-.6.3-1.1.5-1.5.4-.7 1-1.4 1.8-2 .8-.6 1.8-.9 3-.9s2.2.3 3.1.9c.8.6 1.4 1.2 1.7 2 .3.4.4.9.5 1.5.1.6.1 1.9.1 3.7 0 1.8 0 3-.1 3.7-.1.6-.3 1.1-.5 1.5-.4.7-.9 1.4-1.7 1.9-.8.6-1.8.9-3.1.9-1.2 0-2.2-.3-3-.9-.8-.6-1.4-1.2-1.8-1.9-.1-.2-.2-.5-.3-.7-.1-.2-.2-.5-.2-.8-.2-.7-.2-1.9-.2-3.7zm2.3 0c0 1.6.1 2.6.2 3.2.1.6.3 1 .6 1.3.2.3.6.6 1 .8.4.2.9.4 1.4.4.6 0 1-.1 1.4-.4.4-.2.7-.5.9-.8.3-.3.5-.8.6-1.3.1-.6.2-1.6.2-3.2s-.1-2.6-.2-3.2c-.1-.5-.3-1-.6-1.3-.2-.3-.5-.6-.9-.8-.4-.2-.9-.3-1.4-.3-.5 0-1 .1-1.4.3-.4.2-.7.5-1 .8-.3.3-.5.8-.6 1.3-.1.6-.2 1.6-.2 3.2z" fill="#383839" data-color="1"></path>
        <path d="M354.3 27.7h2.2l7 11.3V27.7h2.3v15.9h-2.2l-6.9-11.3v11.3h-2.3V27.7z" fill="#383839" data-color="1"></path>
    </g>
</svg>