<svg xmlns="http://www.w3.org/2000/svg" viewBox="0 0 1024 1024"><path d="M256.49 942.037c-22.89-4.854-41.579-21.094-49.988-43.435-7.302-19.4-7.314-49.963-.028-70.916 3.568-10.258 8.141-17.296 17.08-26.284 9.198-9.25 17.804-14.104 30.856-17.403 9.597-2.425 26.77-2.668 36.905-.52 15.995 3.389 32.065 14.96 38.791 27.933l3.288 6.34 4.713-6.71c9.27-13.2 22.31-22.391 37.893-26.71 5.073-1.406 10.233-1.805 23.5-1.817 19.204-.017 25.642 1.356 39 8.316 8.434 4.395 20.817 16.2 25.351 24.169l3.13 5.5.01-17.25L467 786h32v128h73.982l-2.93-4.762c-7.397-12.02-11.763-33.319-10.71-52.245 1.384-24.9 7.757-40.744 22.346-55.55C594.8 788.137 611.47 782 634.5 782c15.059 0 24.723 2.022 36.26 7.587 10.716 5.17 21.224 14.302 27.405 23.818L702 819.31V783.781l43.75.501c47.691.547 53.729 1.165 63.598 6.515 18.066 9.792 25.572 36.224 16.164 56.921-4.943 10.875-16.767 19.763-29.977 22.534-3.044.638-5.535 1.443-5.535 1.788s2.446 2.312 5.436 4.371c10.199 7.025 15.657 14.12 36.413 47.333 5.583 8.935 10.151 16.472 10.151 16.75 0 .278-8.438.489-18.75.468l-18.75-.038-16.2-24.212c-20.86-31.175-23.791-34.835-30.48-38.066-4.435-2.141-6.9-2.599-14.82-2.75l-9.5-.182-.209 32.393-.208 32.393-15.518.275-15.518.276-.273-17.136-.274-17.136-4.96 7.261c-8.427 12.339-22.579 22.21-38.04 26.535-8.73 2.442-30.885 3.049-41.02 1.124-14.367-2.73-25.717-8.346-35.976-17.802L577 919.745V941H467v-36.382l-3.559 5.94c-4.667 7.794-12.384 15.678-20.441 20.886-14.22 9.192-26.204 12.049-47.402 11.302-10.763-.38-15.754-1.023-21.098-2.72-15.848-5.033-29.37-14.932-37.695-27.593l-4.21-6.405-2.833 5.279c-7.418 13.824-18.428 23.184-33.3 28.308-6.965 2.4-9.715 2.777-21.962 3.008-7.7.145-15.805-.119-18.01-.586zm30.073-29.282c2.785-1.43 6.78-4.5 8.879-6.822 3.905-4.323 8.768-13.878 10.017-19.683.385-1.788.805-3.25.933-3.25s4.227 1.35 9.108 3c11.57 3.91 11.619 3.907 10.18-.75-1.913-6.19-1.482-39.318.62-47.647.956-3.793 1.525-7.111 1.264-7.373-.38-.38-12.024 2.09-20.651 4.38-1.125.299-1.92-.69-2.73-3.392-2.937-9.805-12.46-18.818-22.508-21.3-2.832-.7-8.037-.973-12.6-.66-9.83.673-17.553 4.256-23.546 10.92-8.58 9.543-11.677 20.64-11.673 41.822.004 22.434 4.106 36.101 13.406 44.674 8.027 7.399 13.845 9.432 25.738 8.994 6.781-.25 9.524-.84 13.563-2.913zm126.582 1.262c7.86-2.453 15.139-7.883 20.111-15 9.23-13.211 11.997-37.814 6.627-58.93-3.291-12.945-10.555-22.09-21.741-27.374-8.294-3.917-21.54-4.892-30.702-2.258-20.557 5.91-30.508 22.673-30.596 51.545-.061 19.764 3.507 31.116 12.956 41.217 5.117 5.47 11.066 9.326 17.486 11.332 6.466 2.021 18.469 1.774 25.859-.532zm239.03-1.22c16.04-7.4 24.357-22.278 25.507-45.633 1.51-30.658-8.46-49.992-29.041-56.317-10.063-3.093-22.903-2.317-31.983 1.932-16.366 7.659-24.598 24.035-24.64 49.013-.032 18.418 3.984 31.545 12.57 41.096 8.715 9.692 17.77 13.274 32.412 12.822 7.73-.24 10.557-.782 15.175-2.912zM787.8 847.039c5.478-3.136 8.193-7.558 8.91-14.512 1.061-10.279-3.845-17.864-13.209-20.422-2.355-.643-13.562-1.095-27.25-1.098L733 811v39.152l25.25-.326c24.708-.319 25.342-.379 29.55-2.788zM871 809.57V793h-6.5c-5.833 0-6.5-.205-6.5-2 0-1.911.667-2 15-2s15 .089 15 2c0 1.777-.667 2-5.975 2h-5.975l-.275 16.25c-.27 15.995-.31 16.255-2.525 16.57l-2.25.32Zm18.667 15.763c-.367-.366-.667-8.691-.667-18.5V789h7.834l4.718 14.25c2.594 7.838 4.95 14.654 5.233 15.147.283.494 2.831-5.806 5.662-14l5.148-14.897 3.725-.312 3.726-.311-.273 18.311c-.27 18.07-.302 18.316-2.497 18.628-2.204.313-2.226.182-2.5-14.827l-.276-15.144-5.126 14.827c-4.553 13.174-5.376 14.828-7.368 14.828-1.989 0-2.848-1.705-7.561-15l-5.318-15-.063 15.25c-.06 14.098-.202 15.25-1.897 15.25-1.009 0-2.134-.3-2.5-.667zM211.245 663.75l.255-102.25 20.75-.27 20.75-.27V642h81v-81h41v205h-41v-89h-81v89h-42.009zm168.162 100.5c.341-.963 18.255-47.096 39.808-102.519l39.188-100.768 21.899.268 21.898.269 39.397 98.5a749181.55 749181.55 0 0 1 40.9 102.269l1.502 3.769-22.646-.27-22.645-.268-8.664-22.5-8.665-22.5-41.056-.261-41.057-.261-8.349 23.011L422.57 766h-21.892c-20.418 0-21.85-.118-21.27-1.75zm114.552-116.326c-7.578-20.392-13.95-37.248-14.16-37.459-.211-.21-5.72 14.336-12.24 32.326-6.52 17.99-12.682 34.846-13.693 37.459L452.03 685h55.706zM587 663.5V561h41v205h-41Zm63 1V562.25c0-1.212 85.022-1.446 102.5-.282 19.264 1.282 27.876 2.98 36.5 7.197 25.068 12.258 35.52 48.94 21.865 76.745-4.357 8.872-13.33 17.617-22.865 22.285-7.326 3.587-17.681 6.805-21.894 6.805-3.156 0-2.55 1.38 1.644 3.753 7.475 4.228 17.118 13.258 24.153 22.619C798.19 709.736 833 764.02 833 765.459c0 .298-10.997.541-24.438.541h-24.439l-20.707-30.75c-35.584-52.84-36.06-53.271-59.666-54.06l-12.75-.426V766h-41Zm106.695-18.738c10.888-3.018 16.286-10.13 17.095-22.522.612-9.373-1.37-14.82-7.29-20.03-7.065-6.22-8.499-6.448-43.75-6.948l-31.75-.45v52.449l30.25-.53c21.842-.382 31.694-.93 35.445-1.97zm-270.39-108.188c-21.58-4.092-38.209-13.054-52.01-28.031-12.45-13.513-20.682-31.645-23.892-52.63-1.79-11.706-1.47-39.779.574-50.413 4.414-22.958 14.814-42.13 30.444-56.125 11.193-10.022 21.105-15.179 37.579-19.55 9.793-2.6 35.2-3.61 47.076-1.874 43.075 6.298 72.422 36.23 79.531 81.115 2.542 16.05 1.54 43.97-2.08 57.934-9.148 35.292-32.322 59.082-66.388 68.153-9.983 2.658-39.898 3.494-50.833 1.42zm34.178-35.088c9.844-2.085 16.713-5.762 24.52-13.128 13.591-12.821 19.065-28.986 19.084-56.358.02-27.268-5.575-43.868-18.988-56.34-16.4-15.248-47.204-17.865-66.463-5.646-11.296 7.168-18.743 17.602-23.189 32.492-2.292 7.678-2.758 11.408-3.18 25.494-.568 18.891.852 29.17 5.66 40.986 10.208 25.084 35.51 38.23 62.556 32.5zM211 433.621V331l48.25.009c26.538.005 53.342.46 59.566 1.01 20.054 1.775 32.838 7.663 42.477 19.564 6.434 7.943 9.56 14.894 10.932 24.309 2.153 14.769-2.29 28.664-12.792 40.007-2.943 3.179-7.394 6.864-9.892 8.189-4.67 2.478-5.75 3.912-2.944 3.912.879 0 5.15 1.849 9.492 4.107 13.5 7.024 23.194 19.908 25.827 34.327 4.49 24.579-8.793 51.958-30.119 62.086-13.404 6.365-15.779 6.574-81.547 7.179l-59.25.544V433.622Zm113.213 64.991c12.364-4.657 18.292-17.78 14.62-32.364-.84-3.336-2.594-6.099-6.25-9.848-8.023-8.226-10.032-8.61-47.833-9.152l-31.75-.455v54.351l33.25-.378c28.801-.328 33.88-.616 37.963-2.154zm-5.713-88.916c8.942-4.03 13.5-11.15 13.5-21.091 0-8.022-1.11-11.067-5.792-15.885-5.792-5.962-9.228-6.544-43.253-7.337L253 364.686v47.444l30.75-.316c27.045-.277 31.232-.533 34.75-2.118zM626.338 524.75c4.03-6.188 19.769-30.254 34.976-53.481l27.65-42.232-31.482-48.588C640.167 353.725 626 331.659 626 331.412c0-.246 10.852-.327 24.116-.18l24.116.268 20.123 32.25c11.068 17.738 20.356 32.25 20.641 32.25.285 0 9.467-14.625 20.404-32.5l19.887-32.5h23.915c18.856 0 23.761.264 23.184 1.25-.402.688-14.64 22.992-31.64 49.566s-30.678 48.92-30.395 49.657c.283.737 15.845 24.329 34.582 52.426C793.67 511.997 809 535.214 809 535.493c0 .279-11.137.504-24.75.501l-24.75-.006-22.402-34.994c-12.321-19.247-22.671-34.98-23-34.962-.329.017-10.667 15.767-22.975 35L668.747 536h-49.735ZM489.585 311.893c-40.272-5.873-68.236-32.205-77.881-73.334-1.819-7.754-2.125-12.157-2.129-30.559-.003-18.139.324-22.985 2.09-31 4.583-20.79 13.685-37.382 28.028-51.084 17.767-16.975 37.955-24.188 67.807-24.228 29.534-.04 51.374 7.852 69.777 25.212 15.297 14.43 24.083 31.928 28.352 56.464 2.5 14.368 1.463 44.851-1.972 57.95-10.327 39.375-36.621 63.94-75.157 70.213-9.695 1.578-29.34 1.763-38.915.366zm34.372-36.556c20.882-5.79 34.995-23.499 39.074-49.028 1.55-9.709 1.271-32.511-.514-41.913-2.851-15.018-7.937-24.802-17.648-33.956-6.469-6.097-14-9.938-23.386-11.926-28.359-6.007-54.538 7.213-63.802 32.218-4.56 12.31-5.182 16.725-5.172 36.768.01 20.128 1.091 26.635 6.423 38.634 5.283 11.89 16.979 23.098 29.089 27.876 10.267 4.051 24.25 4.567 35.936 1.327zM211.834 224.75c-.092-46.888-.204-92.9-.25-102.25l-.084-17h40.922l41.04 67.202c22.57 36.962 41.263 67.224 41.538 67.25.275.027.381-30.327.236-67.452l-.264-67.5H374v205l-20.75-.024-20.75-.024-41-66.42-41-66.422-.257 66.445-.257 66.445H212ZM686 225v-85h-61v-35h163v35h-61v170h-41Z" style="fill:#fff"/></svg>