<?xml version="1.0" encoding="UTF-8" standalone="no"?>
<!-- Created with Inkscape (http://www.inkscape.org/) -->

<svg
   version="1.1"
   id="svg901"
   width="1024"
   height="1024"
   viewBox="0 0 1024 1024"
   sodipodi:docname="logo_edits.svg"
   inkscape:version="1.2.1 (9c6d41e, 2022-07-14)"
   xmlns:inkscape="http://www.inkscape.org/namespaces/inkscape"
   xmlns:sodipodi="http://sodipodi.sourceforge.net/DTD/sodipodi-0.dtd"
   xmlns="http://www.w3.org/2000/svg"
   xmlns:svg="http://www.w3.org/2000/svg">
  <defs
     id="defs905" />
  <sodipodi:namedview
     id="namedview903"
     pagecolor="#505050"
     bordercolor="#eeeeee"
     borderopacity="1"
     inkscape:showpageshadow="0"
     inkscape:pageopacity="0"
     inkscape:pagecheckerboard="0"
     inkscape:deskcolor="#505050"
     showgrid="false"
     inkscape:zoom="0.63448484"
     inkscape:cx="744.69864"
     inkscape:cy="638.31312"
     inkscape:window-width="1920"
     inkscape:window-height="1056"
     inkscape:window-x="711"
     inkscape:window-y="24"
     inkscape:window-maximized="0"
     inkscape:current-layer="g907" />
  <g
     inkscape:groupmode="layer"
     inkscape:label="Image"
     id="g907">
    <path
       style="fill:#000000"
       d="m 256.48991,942.0366 c -22.88913,-4.85398 -41.57845,-21.09317 -49.98766,-43.4344 -7.3024,-19.40069 -7.31447,-49.96346 -0.028,-70.91571 3.56742,-10.25812 8.14079,-17.29659 17.07884,-26.28455 9.19867,-9.25002 17.80496,-14.10381 30.85687,-17.40269 9.59682,-2.4256 26.77058,-2.66787 36.90461,-0.52061 15.99576,3.38929 32.06591,14.96121 38.79167,27.9334 l 3.28758,6.34085 4.71288,-6.71091 c 9.26984,-13.19978 22.30977,-22.39133 37.8933,-26.71013 5.0727,-1.40584 10.23293,-1.80475 23.5,-1.81663 19.20363,-0.0172 25.64233,1.35573 39,8.31598 8.43393,4.39464 20.81677,16.19981 25.35148,24.1688 l 3.12975,5.5 0.009,-17.25 L 467,786 h 16 16 v 64 64 h 36.99076 36.99075 l -2.93007,-4.76198 c -7.39627,-12.02046 -11.76243,-33.319 -10.7102,-52.24533 1.38437,-24.90062 7.75798,-40.74375 22.34724,-55.54945 C 594.80021,788.137 611.46947,782 634.5,782 c 15.05902,0 24.72348,2.02229 36.2601,7.58744 10.7164,5.16949 21.22399,14.30174 27.40456,23.8176 L 702,819.31007 V 801.5456 783.78113 l 43.75,0.50129 c 47.69116,0.54645 53.72883,1.16491 63.59835,6.51452 18.06566,9.79221 25.57115,36.22366 16.16335,56.92113 -4.94306,10.8749 -16.76698,19.76305 -29.97679,22.53384 -3.0442,0.63853 -5.53491,1.44327 -5.53491,1.78831 0,0.34504 2.44599,2.31196 5.43554,4.37094 10.19915,7.02443 15.65732,14.11945 36.41313,47.33308 5.58323,8.93433 10.15133,16.47183 10.15133,16.75 0,0.27817 -8.4375,0.48865 -18.75,0.46773 l -18.75,-0.038 -16.20061,-24.21198 C 767.43998,885.53737 764.50881,881.87665 757.81997,878.64634 753.38495,876.5045 750.91972,876.04695 743,875.89572 l -9.5,-0.18141 -0.20859,32.39284 -0.2086,32.39285 -15.51768,0.27527 -15.51769,0.27527 -0.27372,-17.13552 -0.27372,-17.13553 -4.95932,7.26092 c -8.4273,12.33838 -22.57959,22.21016 -38.04068,26.53487 -8.72974,2.44185 -30.8852,3.04853 -41.02037,1.12326 -14.36652,-2.72905 -25.71688,-8.34543 -35.97523,-17.80125 L 577,919.74528 V 930.37264 941 h -55 -55 v -18.19117 -18.19117 l -3.55859,5.94117 c -4.6677,7.79286 -12.38469,15.67736 -20.44141,20.88514 -14.22022,9.19181 -26.20415,12.04907 -47.40204,11.30181 -10.76275,-0.37941 -15.75398,-1.0229 -21.09796,-2.72005 -15.84806,-5.03304 -29.37046,-14.93151 -37.69478,-27.59281 l -4.21071,-6.40449 -2.83227,5.2783 c -7.41794,13.82428 -18.42847,23.18428 -33.30037,28.30846 -6.96494,2.3998 -9.71486,2.77639 -21.96187,3.00756 -7.7,0.14534 -15.80454,-0.11843 -18.01009,-0.58615 z m 30.07355,-29.28176 c 2.7849,-1.42971 6.78023,-4.49975 8.87852,-6.8223 3.90504,-4.32241 8.7683,-13.87782 10.01751,-19.68254 0.38468,-1.7875 0.80425,-3.25 0.93238,-3.25 0.12812,0 4.22678,1.35 9.10813,3 11.56916,3.91063 11.619,3.90695 10.18018,-0.75 -1.9127,-6.19079 -1.48221,-39.31757 0.61919,-47.64697 0.95701,-3.79334 1.52591,-7.11108 1.26423,-7.37276 -0.38017,-0.38017 -12.02394,2.08931 -20.65062,4.3797 -1.12469,0.2986 -1.91985,-0.68954 -2.72951,-3.39192 -2.93768,-9.80513 -12.4614,-18.81771 -22.50894,-21.3009 -2.83193,-0.6999 -8.0368,-0.97248 -12.59865,-0.6598 -9.83007,0.67376 -17.55428,4.2564 -23.54671,10.92143 -8.57972,9.54272 -11.67703,20.63945 -11.6731,41.82122 0.004,22.43422 4.10544,36.10096 13.40633,44.67422 8.02661,7.39867 13.84488,9.43173 25.7376,8.99339 6.78097,-0.24993 9.52403,-0.83901 13.56346,-2.91277 z m 126.5812,1.26166 c 7.85959,-2.45297 15.13927,-7.88215 20.11131,-14.99899 9.23009,-13.21169 11.9968,-37.81421 6.62721,-58.93134 -3.2913,-12.94379 -10.55477,-22.08849 -21.74166,-27.37272 -8.2938,-3.91766 -21.5395,-4.89204 -30.70115,-2.25844 -20.55735,5.90938 -30.5082,22.67313 -30.59677,51.54499 -0.0606,19.76415 3.50765,31.11579 12.95613,41.21698 5.11678,5.47026 11.0661,9.3258 17.48631,11.33227 6.46643,2.02091 18.46873,1.77364 25.85862,-0.53275 z m 239.03049,-1.21894 c 16.04027,-7.40059 24.35636,-22.27886 25.50657,-45.63367 1.5099,-30.65822 -8.45974,-49.99167 -29.04085,-56.31694 -10.0626,-3.09258 -22.90276,-2.31678 -31.9831,1.93243 -16.36539,7.65828 -24.59827,24.03449 -24.64041,49.01278 -0.0311,18.41828 3.98435,31.54447 12.57145,41.09539 8.71415,9.69224 17.77,13.2748 32.41119,12.82211 7.73067,-0.23902 10.55697,-0.78139 15.17515,-2.9121 z m 135.62426,-65.75947 c 5.47753,-3.13652 8.19235,-7.55813 8.91002,-14.51167 1.06092,-10.27931 -3.8454,-17.8648 -13.20943,-20.42264 -2.35494,-0.64327 -13.5619,-1.09492 -27.25,-1.0982 L 733,811 v 19.5758 19.5758 l 25.25,-0.3258 c 24.70815,-0.31881 25.34226,-0.37863 29.54941,-2.78771 z M 871,809.56955 V 793 h -6.5 c -5.83333,0 -6.5,-0.20513 -6.5,-2 0,-1.91111 0.66667,-2 15,-2 14.33333,0 15,0.0889 15,2 0,1.77686 -0.66667,2 -5.97523,2 h -5.97523 l -0.27477,16.25 c -0.27047,15.99547 -0.31001,16.25501 -2.52477,16.56955 L 871,826.1391 Z m 18.66667,15.76378 C 889.3,824.96667 889,816.64167 889,806.83333 V 789 h 3.91708 3.91707 l 4.71764,14.25 c 2.5947,7.8375 4.94957,14.65384 5.23305,15.14742 0.28348,0.49358 2.83165,-5.80642 5.66262,-14 l 5.1472,-14.89742 3.72547,-0.31172 3.72546,-0.31173 -0.27279,18.31173 c -0.26918,18.06884 -0.30229,18.31591 -2.4964,18.62781 -2.20396,0.3133 -2.22604,0.18237 -2.5,-14.82751 l -0.2764,-15.1436 -5.12564,14.82751 c -4.55382,13.17332 -5.3759,14.82751 -7.36882,14.82751 -1.98821,0 -2.84758,-1.70496 -7.56062,-15 l -5.31744,-15 -0.0637,15.25 c -0.0589,14.09803 -0.20223,15.25 -1.89707,15.25 -1.00834,0 -2.13334,-0.3 -2.5,-0.66667 z M 211.24528,663.75 211.5,561.5 232.25,561.22971 253,560.95942 V 601.47971 642 H 293.5 334 V 601.5 561 H 354.5 375 V 663.5 766 H 354.5 334 V 721.5 677 H 293.5 253 v 44.5 44.5 h -21.00472 -21.00471 z m 168.16135,100.5 c 0.34133,-0.9625 18.25512,-47.09587 39.80842,-102.51859 l 39.18782,-100.7686 21.89867,0.2686 21.89867,0.26859 39.39662,98.5 c 21.66814,54.175 40.07283,100.19595 40.89931,102.26877 l 1.50269,3.76878 -22.64556,-0.26878 -22.64556,-0.26877 -8.66414,-22.5 -8.66414,-22.5 -41.05655,-0.26098 -41.05655,-0.26099 -8.34887,23.01099 L 422.56858,766 H 400.6773 c -20.41859,0 -21.84953,-0.11773 -21.27067,-1.75 z M 493.95852,647.92419 c -7.57724,-20.39169 -13.94931,-37.24831 -14.16015,-37.45916 -0.21085,-0.21084 -5.71853,14.33577 -12.23929,32.32581 -6.52076,17.99004 -12.68257,34.84666 -13.69291,37.45916 l -1.83699,4.75 h 27.85307 27.85306 z M 587,663.5 V 561 H 607.5 628 V 663.5 766 H 607.5 587 Z m 63,1 c 0,-55.825 -1.6e-4,-101.8375 -3.6e-4,-102.25 -5.8e-4,-1.21195 85.02244,-1.44621 102.50036,-0.28242 19.26437,1.28274 27.87608,2.98099 36.5,7.19788 25.06823,12.25776 35.51935,48.94027 21.86506,76.74444 C 806.50832,654.78151 797.53554,663.5267 788,668.19499 780.67404,671.78155 770.31903,675 766.10566,675 c -3.15522,0 -2.55052,1.38009 1.64434,3.75286 7.47543,4.2284 17.11797,13.25823 24.15343,22.61866 C 798.19011,709.73573 833,764.01989 833,765.45942 833,765.75674 822.00274,766 808.56164,766 H 784.12327 L 763.41568,735.25 C 727.83244,682.41024 727.35641,681.97893 703.75,681.18975 L 691,680.76351 V 723.38176 766 H 670.5 650 Z m 106.69477,-18.73849 c 10.88825,-3.018 16.28628,-10.12928 17.09545,-22.52126 0.61203,-9.37296 -1.3704,-14.8205 -7.28943,-20.03064 -7.06578,-6.21955 -8.49934,-6.4472 -43.75079,-6.9477 L 691,595.81112 v 26.22488 26.22488 l 30.25,-0.52974 c 21.84228,-0.3825 31.69384,-0.92994 35.44477,-1.96963 z M 486.30586,537.57356 c -21.58152,-4.09193 -38.20984,-13.05375 -52.01045,-28.031 -12.45127,-13.51286 -20.68227,-31.64415 -23.89201,-52.62946 -1.79055,-11.7066 -1.47115,-39.77898 0.57358,-50.4131 4.41431,-22.95762 14.81407,-42.13018 30.44377,-56.12487 11.19277,-10.02189 21.10492,-15.17871 37.57925,-19.5507 9.79321,-2.59894 35.19995,-3.61015 47.07589,-1.87366 43.07536,6.29845 72.42192,36.22969 79.53117,81.11568 2.54196,16.04933 1.53949,43.96949 -2.08011,57.93355 -9.14793,35.29183 -32.32217,59.08216 -66.38784,68.15276 -9.98272,2.65808 -39.89773,3.49422 -50.83325,1.4208 z m 34.1767,-35.08735 c 9.84431,-2.08525 16.713,-5.76271 24.52106,-13.12843 13.5908,-12.82087 19.06451,-28.98566 19.08385,-56.35778 0.0193,-27.26827 -5.57539,-43.86795 -18.98831,-56.33947 -16.4,-15.24894 -47.20393,-17.86587 -66.46287,-5.64631 -11.29623,7.16731 -18.74317,17.60165 -23.18895,32.49136 -2.29261,7.67839 -2.75804,11.40864 -3.18094,25.49442 -0.56719,18.89137 0.85257,29.17055 5.66105,40.98636 10.20786,25.08363 35.50935,38.22876 62.55511,32.49985 z M 211,433.62145 V 331 l 48.25,0.009 c 26.5375,0.005 53.34204,0.45928 59.56565,1.01016 20.05428,1.77511 32.83833,7.66297 42.47758,19.56358 6.43401,7.94343 9.55994,14.89435 10.93216,24.30914 2.15256,14.76873 -2.29039,28.66419 -12.79193,40.0071 -2.94314,3.17894 -7.39467,6.86397 -9.89231,8.18896 -4.67036,2.47762 -5.75,3.91251 -2.94385,3.91251 0.87852,0 5.14958,1.84809 9.49124,4.10687 13.49994,7.02345 23.19396,19.90747 25.82767,34.32679 4.48932,24.57864 -8.793,51.95784 -30.11926,62.08563 -13.40399,6.36553 -15.77887,6.57461 -81.54695,7.17906 L 211,536.24334 V 433.6219 Z m 113.21345,64.99093 c 12.36388,-4.65726 18.29128,-17.77956 14.6189,-32.36389 -0.84004,-3.33612 -2.59358,-6.09931 -6.25,-9.84865 -8.02224,-8.22611 -10.03132,-8.61052 -47.83235,-9.15203 L 253,446.79298 v 27.17531 27.17532 l 33.25,-0.37788 c 28.80138,-0.32732 33.88063,-0.61543 37.96345,-2.15335 z M 318.5,409.69625 c 8.94239,-4.02933 13.5,-11.14977 13.5,-21.09131 0,-8.02162 -1.11029,-11.06669 -5.79209,-15.88526 -5.79204,-5.96125 -9.22834,-6.54408 -43.25332,-7.33627 L 253,364.68599 v 23.72214 23.72213 l 30.75,-0.31583 c 27.04483,-0.27777 31.23197,-0.533 34.75,-2.11818 z M 626.33817,524.75 c 4.02918,-6.1875 19.76842,-30.25407 34.9761,-53.48126 L 688.9646,429.03748 657.4823,380.44899 C 640.16703,353.72531 626,331.65888 626,331.41246 c 0,-0.24641 10.8522,-0.32752 24.11601,-0.18024 l 24.116,0.26778 20.12306,32.25 c 11.06768,17.7375 20.35612,32.25 20.64096,32.25 0.28485,0 9.46673,-14.625 20.40419,-32.5 L 755.2865,331 h 23.91576 c 18.85623,0 23.76096,0.26445 23.184,1.25 -0.40247,0.6875 -14.64075,22.99226 -31.64063,49.56612 -16.99987,26.57387 -30.67741,48.91926 -30.39454,49.65643 0.28288,0.73717 15.84461,24.32911 34.58162,52.42654 C 793.66972,511.99652 809,535.21363 809,535.49266 c 0,0.27904 -11.1375,0.50479 -24.75,0.50167 l -24.75,-0.006 -22.40201,-34.99432 c -12.3211,-19.24688 -22.6711,-34.97997 -23,-34.96241 -0.32889,0.0175 -10.66743,15.76755 -22.97453,35 L 668.74693,536 H 643.87966 619.01239 Z M 489.58475,311.89338 c -40.27191,-5.87365 -68.23596,-32.20499 -77.88117,-73.33398 -1.81838,-7.75395 -2.12506,-12.15753 -2.12825,-30.5594 -0.003,-18.13897 0.3236,-22.98511 2.09007,-31 4.58213,-20.79023 13.68502,-37.38167 28.02738,-51.08427 17.76703,-16.97452 37.95511,-24.18781 67.80722,-24.22782 29.53361,-0.0396 51.37412,7.85186 69.77657,25.2118 15.29705,14.43047 24.08328,31.92831 28.35268,56.4646 2.49997,14.36736 1.46229,44.85088 -1.97262,57.94887 -10.32625,39.376 -36.62101,63.94146 -75.15663,70.21386 -9.6947,1.57799 -29.33971,1.76293 -38.91525,0.36634 z m 34.37254,-36.55654 c 20.88212,-5.79033 34.99492,-23.49867 39.07325,-49.028 1.55095,-9.7086 1.27152,-32.51106 -0.51364,-41.91332 -2.85121,-15.01708 -7.93678,-24.80193 -17.64827,-33.956 -6.46826,-6.09699 -13.99912,-9.93736 -23.38607,-11.92573 -28.35853,-6.00698 -54.53748,7.21273 -63.80123,32.21802 -4.56082,12.31083 -5.18183,16.7255 -5.17222,36.76819 0.01,20.12773 1.09139,26.6345 6.42275,38.63363 5.28279,11.88981 16.97916,23.09874 29.08902,27.87675 10.26696,4.05087 24.24982,4.567 35.93641,1.32646 z M 211.83372,224.75 c -0.0915,-46.8875 -0.20396,-92.9 -0.25,-102.25 l -0.0837,-17 h 20.46119 20.4612 l 41.0388,67.20236 c 22.57135,36.9613 41.26381,67.22386 41.53881,67.25014 0.275,0.0263 0.38128,-30.32729 0.23617,-67.45236 L 334.97234,105 H 354.48617 374 V 207.5 310 l -20.75,-0.0239 -20.75,-0.0239 -41,-66.42087 -41,-66.42087 -0.25709,66.44476 L 249.98582,310 H 230.99291 212 Z M 686,225 V 140 H 655.5 625 V 122.5 105 H 706.5 788 V 122.5 140 H 757.5 727 v 85 85 H 706.5 686 Z"
       id="path1073" />
  </g>
</svg>
