<?xml version="1.0" encoding="UTF-8" standalone="no"?>
<!-- Generator: Adobe Illustrator 23.0.1, SVG Export Plug-In . SVG Version: 6.00 Build 0)  -->

<svg
   version="1.1"
   id="Layer_1"
   x="0px"
   y="0px"
   viewBox="0 0 651087.06 138823.19"
   xml:space="preserve"
   width="651087.06"
   height="138823.19"
   xmlns="http://www.w3.org/2000/svg"
   xmlns:svg="http://www.w3.org/2000/svg"><defs
   id="defs85" />
<style
   type="text/css"
   id="style64">
	.st0{fill:#333333;}
	.st1{fill:#FF0000;}
</style>
<path
   class="st0"
   d="m -115457.89,-255994.45 c -13.48,0 -26.25,0 -39.02,0 -12.75,0 -25.5,0 -38.49,0 0,-9.91 0,-19.59 0,-29.25 2.75,-0.87 183.74,-1.25 191.07,-0.39 0,9.75 0,19.54 0,29.65 -1.52,0 -2.99,0 -4.46,0 -22.78,0 -45.56,-0 -68.34,0 -1.46,0 -2.92,0.31 -4.65,0.51 0,47.26 0,94.17 0,140.98 -2.97,0.96 -31.5,1.17 -36.11,0.28 0,-47.07 0,-94.21 0,-141.8 z"
   id="path66"
   style="fill:#f9f9f9" />
<path
   class="st0"
   d="m -114901.88,-255852.05 c -8.35,0 -16.7,0.26 -25.04,-0.1 -9.99,-0.39 -19.04,-3.4 -26.27,-10.8 -5.12,-5.24 -7.47,-11.54 -7.53,-18.74 -0.1,-8.98 0.34,-17.97 -0.1,-26.93 -0.87,-18.02 11.65,-28.55 26.31,-31.16 3.83,-0.68 7.77,-1.04 11.66,-1.07 14.42,-0.12 28.83,-0.1 43.25,-0 6.49,0 12.79,0.88 18.76,3.7 9.27,4.39 15.07,11.49 17.22,21.52 0.21,0.97 0.1,2.02 0.1,3.03 0,10.5 -0.1,20.99 0,31.49 0.12,9.24 -4.06,16.25 -11.09,21.63 -6.61,5.06 -14.31,7.36 -22.62,7.42 -8.22,0.1 -16.45,0 -24.67,0 z m -0.27,-21.98 c 7.59,0 15.19,-0 22.78,0 5.42,0 10.42,-2.81 10.08,-9.93 -0.27,-5.68 -0.1,-11.39 -0.1,-17.08 0,-3.29 0.1,-6.59 -0,-9.87 -0.17,-4.07 -2.29,-6.61 -6.24,-7.46 -1.71,-0.37 -3.51,-0.48 -5.27,-0.49 -13.92,-0 -27.85,-0 -41.77,0 -1.99,0 -4.04,0.27 -5.96,0.79 -4.25,1.16 -5.92,3.16 -5.99,7.58 -0.13,9.36 -0.38,18.75 0.1,28.09 0.25,5.05 2.45,7.29 7.33,8.2 1.11,0.21 2.27,0.14 3.41,0.14 7.21,0 14.42,0 21.64,0 z"
   id="path68"
   style="fill:#f9f9f9" />
<path
   class="st0"
   d="m -115092.64,-255940.64 c 8.6,0 17,0 25.78,0 0,21.91 0,43.61 0,65.66 1.97,0 3.59,0.18 5.16,-0 11.63,-1.56 21.58,-6.97 30.58,-14.1 14.59,-11.55 25.31,-26.21 33.25,-42.95 1.29,-2.72 2.27,-5.58 3.46,-8.54 9.21,0 18.35,0 27.94,0 -1.8,4.29 -3.33,8.26 -5.12,12.11 -5.66,12.13 -12.41,23.61 -20.84,34.05 -11.74,14.54 -25.69,26.3 -42.91,33.84 -14.94,6.54 -30.6,9.38 -46.9,8.55 -5.96,-0.3 -10.63,-5.13 -10.64,-11.08 -0,-24.92 -0,-49.85 0,-74.77 -0,-0.86 0.14,-1.72 0.24,-2.74 z"
   id="path70"
   style="fill:#f9f9f9" />
<path
   class="st0"
   d="m -115158.87,-255940.64 c 0.1,1.17 0.14,2.04 0.14,2.9 0,6.06 0,12.12 0,18.59 -1.69,0.1 -3.15,0.27 -4.61,0.27 -16.83,0 -33.66,-0 -50.48,0.1 -2.36,0 -4.73,0.53 -7.06,0.99 -3.19,0.63 -4.56,2.9 -4.87,5.94 -0.11,1.13 -0.1,2.27 -0.1,3.41 0,17.21 0,34.41 0,51.62 0,1.38 0,2.75 0,4.03 -3.06,0.96 -21.63,1.15 -26.32,0.27 0,-1.25 0,-2.6 0,-3.94 0,-18.22 0.11,-36.44 -0,-54.66 -0.1,-11.86 6.93,-21.23 17.2,-25.73 6,-2.63 12.28,-3.89 18.76,-3.92 18.35,-0.1 36.69,-0 55.04,-0 0.62,-0 1.25,0.1 2.3,0.19 z"
   id="path72"
   style="fill:#f9f9f9" />
<path
   class="st1"
   d="m -115365.33,-255852.49 c -8.46,0 -16.77,0 -25.04,0 -0.85,-3.08 -1.27,-88.99 -0.64,-125.21 8.48,-0.54 16.99,-0.16 25.4,-0.23 0.82,3.02 1.05,119.68 0.28,125.44 z"
   id="path74"
   style="fill:#f9f9f9" />
<path
   class="st1"
   d="m -115274.47,-255852.55 c -8.66,0 -16.94,0 -25.65,0 0,-1.62 0,-2.98 0,-4.34 0,-17.33 0,-34.67 0,-52 0,-1.01 0,-2.03 -0,-3.04 -0.24,-3.69 -2,-5.84 -5.66,-6.57 -1.96,-0.39 -4,-0.58 -6.01,-0.58 -12.91,-0.1 -25.81,-0 -38.72,-0 -1.5,0 -2.99,0 -4.77,0 0,-7.23 0,-14.11 0,-21.38 1.21,-0.1 2.42,-0.25 3.63,-0.25 13.66,-0 27.33,-0 40.99,0 8.89,0 17.29,1.89 24.7,7.06 7.1,4.95 11.66,11.41 11.66,20.43 0,19.23 0,38.46 -0,57.69 0,0.89 -0.1,1.76 -0.14,3.01 z"
   id="path76"
   style="fill:#f9f9f9" />
<path
   class="st0"
   d="m -115142.08,-255940.69 c 8.77,0 17.08,0 25.64,0 0,29.44 0,58.71 0,88.53 -8.52,0.2 -17.01,0.2 -25.64,-0 0,-29.62 0,-58.9 0,-88.5 z"
   id="path78"
   style="fill:#f9f9f9" />
<path
   class="st1"
   d="m -115129.18,-255993.69 c 8.28,0.64 15.9,3.22 20.75,11.08 3.83,6.22 3.29,13.89 -1.26,19.75 -10.45,13.43 -31.84,11.06 -40.02,-0.1 -5.99,-8.15 -4.46,-17.47 1.86,-23.92 5.07,-5.17 11.49,-6.43 18.67,-6.84 z"
   id="path80"
   style="fill:#f9f9f9" />
</svg>
