<?xml version="1.0" encoding="UTF-8" standalone="no"?>
<!-- Generator: Adobe Illustrator 23.0.1, SVG Export Plug-In . SVG Version: 6.00 Build 0)  -->

<svg
   version="1.1"
   id="Layer_1"
   x="0px"
   y="0px"
   viewBox="0 0 941 804"
   style="enable-background:new 0 0 941 804;"
   xml:space="preserve"
   xmlns="http://www.w3.org/2000/svg"
   xmlns:svg="http://www.w3.org/2000/svg"><defs
   id="defs85" />
<style
   type="text/css"
   id="style64">
	.st0{fill:#333333;}
	.st1{fill:#FF0000;}
</style>
<path
   class="st0"
   d="M200.42,348.96c-13.48,0-26.25,0-39.02,0c-12.75,0-25.5,0-38.49,0c0-9.91,0-19.59,0-29.25  c2.75-0.87,183.74-1.25,191.07-0.39c0,9.75,0,19.54,0,29.65c-1.52,0-2.99,0-4.46,0c-22.78,0-45.56-0.01-68.34,0.02  c-1.46,0-2.92,0.31-4.65,0.51c0,47.26,0,94.17,0,140.98c-2.97,0.96-31.5,1.17-36.11,0.28C200.42,443.69,200.42,396.55,200.42,348.96  z"
   id="path66"
   style="fill:#f9f9f9" />
<path
   class="st0"
   d="M756.43,491.36c-8.35,0-16.7,0.26-25.04-0.06c-9.99-0.39-19.04-3.4-26.27-10.8  c-5.12-5.24-7.47-11.54-7.53-18.74c-0.08-8.98,0.34-17.97-0.09-26.93c-0.87-18.02,11.65-28.55,26.31-31.16  c3.83-0.68,7.77-1.04,11.66-1.07c14.42-0.12,28.83-0.07,43.25-0.04c6.49,0.01,12.79,0.88,18.76,3.7  c9.27,4.39,15.07,11.49,17.22,21.52c0.21,0.97,0.08,2.02,0.08,3.03c0,10.5-0.1,20.99,0.03,31.49c0.12,9.24-4.06,16.25-11.09,21.63  c-6.61,5.06-14.31,7.36-22.62,7.42C772.88,491.41,764.65,491.36,756.43,491.36z M756.16,469.38c7.59,0,15.19-0.04,22.78,0.01  c5.42,0.03,10.42-2.81,10.08-9.93c-0.27-5.68-0.05-11.39-0.06-17.08c0-3.29,0.09-6.59-0.04-9.87c-0.17-4.07-2.29-6.61-6.24-7.46  c-1.71-0.37-3.51-0.48-5.27-0.49c-13.92-0.04-27.85-0.05-41.77,0.01c-1.99,0.01-4.04,0.27-5.96,0.79c-4.25,1.16-5.92,3.16-5.99,7.58  c-0.13,9.36-0.38,18.75,0.09,28.09c0.25,5.05,2.45,7.29,7.33,8.2c1.11,0.21,2.27,0.14,3.41,0.14  C741.73,469.39,748.94,469.38,756.16,469.38z"
   id="path68"
   style="fill:#f9f9f9" />
<path
   class="st0"
   d="M565.67,402.77c8.6,0,17,0,25.78,0c0,21.91,0,43.61,0,65.66c1.97,0,3.59,0.18,5.16-0.03  c11.63-1.56,21.58-6.97,30.58-14.1c14.59-11.55,25.31-26.21,33.25-42.95c1.29-2.72,2.27-5.58,3.46-8.54c9.21,0,18.35,0,27.94,0  c-1.8,4.29-3.33,8.26-5.12,12.11c-5.66,12.13-12.41,23.61-20.84,34.05c-11.74,14.54-25.69,26.3-42.91,33.84  c-14.94,6.54-30.6,9.38-46.9,8.55c-5.96-0.3-10.63-5.13-10.64-11.08c-0.04-24.92-0.02-49.85,0-74.77  C565.41,404.65,565.57,403.79,565.67,402.77z"
   id="path70"
   style="fill:#f9f9f9" />
<path
   class="st0"
   d="M499.44,402.77c0.06,1.17,0.14,2.04,0.14,2.9c0.01,6.06,0.01,12.12,0.01,18.59c-1.69,0.1-3.15,0.27-4.61,0.27  c-16.83,0.02-33.66-0.03-50.48,0.06c-2.36,0.01-4.73,0.53-7.06,0.99c-3.19,0.63-4.56,2.9-4.87,5.94c-0.11,1.13-0.07,2.27-0.07,3.41  c0,17.21,0,34.41,0,51.62c0,1.38,0,2.75,0,4.03c-3.06,0.96-21.63,1.15-26.32,0.27c0-1.25,0-2.6,0-3.94  c0-18.22,0.11-36.44-0.04-54.66c-0.09-11.86,6.93-21.23,17.2-25.73c6-2.63,12.28-3.89,18.76-3.92c18.35-0.1,36.69-0.03,55.04-0.02  C497.76,402.56,498.39,402.67,499.44,402.77z"
   id="path72"
   style="fill:#f9f9f9" />
<path
   class="st1"
   d="M292.98,490.92c-8.46,0-16.77,0-25.04,0c-0.85-3.08-1.27-88.99-0.64-125.21c8.48-0.54,16.99-0.16,25.4-0.23  C293.52,368.5,293.75,485.16,292.98,490.92z"
   id="path74"
   style="fill:#f9f9f9" />
<path
   class="st1"
   d="M383.84,490.86c-8.66,0-16.94,0-25.65,0c0-1.62,0-2.98,0-4.34c0-17.33,0-34.67,0-52c0-1.01,0.05-2.03-0.02-3.04  c-0.24-3.69-2-5.84-5.66-6.57c-1.96-0.39-4-0.58-6.01-0.58c-12.91-0.05-25.81-0.03-38.72-0.03c-1.5,0-2.99,0-4.77,0  c0-7.23,0-14.11,0-21.38c1.21-0.09,2.42-0.25,3.63-0.25c13.66-0.02,27.33-0.04,40.99,0c8.89,0.02,17.29,1.89,24.7,7.06  c7.1,4.95,11.66,11.41,11.66,20.43c0,19.23,0,38.46-0.01,57.69C384.01,488.74,383.92,489.61,383.84,490.86z"
   id="path76"
   style="fill:#f9f9f9" />
<path
   class="st0"
   d="M516.23,402.72c8.77,0,17.08,0,25.64,0c0,29.44,0,58.71,0,88.53c-8.52,0.2-17.01,0.2-25.64-0.03  C516.23,461.6,516.23,432.32,516.23,402.72z"
   id="path78"
   style="fill:#f9f9f9" />
<path
   class="st1"
   d="M529.13,349.72c8.28,0.64,15.9,3.22,20.75,11.08c3.83,6.22,3.29,13.89-1.26,19.75  c-10.45,13.43-31.84,11.06-40.02-0.07c-5.99-8.15-4.46-17.47,1.86-23.92C515.53,351.39,521.95,350.13,529.13,349.72z"
   id="path80"
   style="fill:#f9f9f9" />
</svg>
