<?xml version="1.0" encoding="UTF-8" standalone="no"?>
<!-- Created with Inkscape (http://www.inkscape.org/) -->

<svg
   width="200mm"
   height="60mm"
   viewBox="0 0 200 60"
   version="1.1"
   id="svg750"
   xmlns="http://www.w3.org/2000/svg"
   xmlns:svg="http://www.w3.org/2000/svg">
  <defs
     id="defs747" />
  <g
     id="layer1">
    <path
       class="st0"
       d="m 28.973938,15.128354 c -3.566584,0 -6.945313,0 -10.324042,0 -3.373437,0 -6.746873,0 -10.1838111,0 0,-2.622021 0,-5.1831886 0,-7.7390636 0.727604,-0.230188 48.6145401,-0.330729 50.5539361,-0.103188 0,2.579688 0,5.1699596 0,7.8448976 -0.402167,0 -0.791105,0 -1.180042,0 -6.027208,0 -12.054417,-0.0026 -18.081625,0.0053 -0.386292,0 -0.772583,0.08202 -1.230312,0.134937 0,12.504212 0,24.915812 0,37.300962 -0.785813,0.254 -8.334375,0.30956 -9.554104,0.0741 0,-12.45394 0,-24.92639 0,-37.517917 z"
       id="path66"
       style="fill:#f9f9f9;stroke-width:0.264583" />
    <path
       class="st0"
       d="m 176.0849,52.805019 c -2.20927,0 -4.41854,0.0688 -6.62516,-0.0159 -2.64319,-0.10319 -5.03767,-0.89959 -6.95061,-2.8575 -1.35466,-1.38642 -1.97643,-3.0533 -1.99231,-4.9583 -0.0212,-2.37595 0.09,-4.75456 -0.0238,-7.12522 -0.23019,-4.7678 3.0824,-7.55386 6.96119,-8.24442 1.01335,-0.17992 2.05581,-0.27517 3.08504,-0.28311 3.81529,-0.0318 7.62794,-0.0185 11.44323,-0.0106 1.71714,0.003 3.38402,0.23283 4.96358,0.97896 2.45269,1.16152 3.98727,3.04006 4.55613,5.69383 0.0556,0.25665 0.0212,0.53446 0.0212,0.80169 0,2.77813 -0.0265,5.5536 0.008,8.33173 0.0317,2.44475 -1.07421,4.29948 -2.93423,5.72294 -1.7489,1.33879 -3.78619,1.94733 -5.98487,1.96321 -2.17488,0.0159 -4.3524,0.003 -6.52728,0.003 z m -0.0714,-5.81554 c 2.00818,0 4.01902,-0.0106 6.02721,0.003 1.43404,0.008 2.75695,-0.74348 2.667,-2.62732 -0.0714,-1.50283 -0.0132,-3.0136 -0.0159,-4.51908 0,-0.87048 0.0238,-1.7436 -0.0106,-2.61144 -0.045,-1.07685 -0.6059,-1.74889 -1.651,-1.97379 -0.45244,-0.0979 -0.92869,-0.127 -1.39436,-0.12965 -3.683,-0.0106 -7.36864,-0.0132 -11.05164,0.003 -0.52652,0.003 -1.06892,0.0714 -1.57692,0.20902 -1.12448,0.30692 -1.56633,0.83608 -1.58485,2.00554 -0.0344,2.4765 -0.10054,4.96094 0.0238,7.43215 0.0661,1.33614 0.64823,1.92881 1.9394,2.16958 0.29368,0.0556 0.6006,0.037 0.90222,0.037 1.90765,0.005 3.8153,0.003 5.72559,0.003 z"
       id="path68"
       style="fill:#f9f9f9;stroke-width:0.264583" />
    <path
       class="st0"
       d="m 125.61299,29.365579 c 2.27542,0 4.49792,0 6.82096,0 0,5.79702 0,11.53848 0,17.37255 0.52123,0 0.94985,0.0476 1.36525,-0.008 3.0771,-0.41275 5.70971,-1.84415 8.09096,-3.73063 3.86027,-3.05593 6.6966,-6.93473 8.79739,-11.36385 0.34131,-0.71967 0.60061,-1.47638 0.91546,-2.25954 2.43681,0 4.8551,0 7.39246,0 -0.47625,1.13506 -0.88106,2.18546 -1.35467,3.2041 -1.49754,3.2094 -3.28348,6.24681 -5.51392,9.00906 -3.1062,3.84705 -6.79714,6.95855 -11.35326,8.9535 -3.95288,1.73038 -8.09625,2.4818 -12.40896,2.26219 -1.57692,-0.0794 -2.81252,-1.35731 -2.81517,-2.93158 -0.0106,-6.59342 -0.005,-13.18948 0,-19.7829 -0.005,-0.22754 0.037,-0.45508 0.0635,-0.72496 z"
       id="path70"
       style="fill:#f9f9f9;stroke-width:0.264583" />
    <path
       class="st0"
       d="m 108.08964,29.365579 c 0.0159,0.30957 0.037,0.53975 0.037,0.7673 0.003,1.60337 0.003,3.20675 0.003,4.9186 -0.44715,0.0265 -0.83344,0.0714 -1.21973,0.0714 -4.45294,0.005 -8.905874,-0.008 -13.35616,0.0159 -0.624417,0.003 -1.251479,0.14023 -1.867958,0.26194 -0.844021,0.16669 -1.2065,0.76729 -1.288521,1.57162 -0.0291,0.29898 -0.01852,0.60061 -0.01852,0.90223 0,4.55348 0,9.10432 0,13.6578 0,0.36512 0,0.7276 0,1.06627 -0.809625,0.254 -5.722938,0.30427 -6.963833,0.0714 0,-0.33073 0,-0.68791 0,-1.04245 0,-4.82071 0.0291,-9.64142 -0.01058,-14.46213 -0.02381,-3.13796 1.833563,-5.6171 4.550834,-6.80773 1.5875,-0.69585 3.249083,-1.02923 4.963583,-1.03717 4.855101,-0.0264 9.707555,-0.008 14.562655,-0.005 0.16405,-0.005 0.33073,0.0238 0.60855,0.0503 z"
       id="path72"
       style="fill:#f9f9f9;stroke-width:0.264583" />
    <path
       class="st1"
       d="m 53.463771,52.688599 c -2.238375,0 -4.437063,0 -6.625167,0 -0.224896,-0.81491 -0.336021,-23.54527 -0.169333,-33.12847 2.243666,-0.14288 4.49527,-0.0423 6.720416,-0.0609 0.216959,0.79904 0.277813,31.66533 0.07408,33.18933 z"
       id="path74"
       style="fill:#f9f9f9;stroke-width:0.264583" />
    <path
       class="st1"
       d="m 77.503812,52.672729 c -2.291292,0 -4.482042,0 -6.786562,0 0,-0.42863 0,-0.78846 0,-1.14829 0,-4.58523 0,-9.17311 0,-13.75834 0,-0.26722 0.01323,-0.5371 -0.0053,-0.80433 -0.0635,-0.97631 -0.529167,-1.54517 -1.497542,-1.73831 -0.518583,-0.10319 -1.058333,-0.15346 -1.590146,-0.15346 -3.41577,-0.0132 -6.828895,-0.008 -10.244666,-0.008 -0.396875,0 -0.791104,0 -1.262063,0 0,-1.91293 0,-3.73327 0,-5.65679 0.320146,-0.0238 0.640292,-0.0661 0.960438,-0.0661 3.614208,-0.005 7.231062,-0.0106 10.845271,0 2.352145,0.005 4.574645,0.50006 6.535208,1.86795 1.878542,1.30969 3.085042,3.0189 3.085042,5.40544 0,5.08794 0,10.17588 -0.0026,15.26381 0.0079,0.23548 -0.01587,0.46567 -0.03704,0.7964 z"
       id="path76"
       style="fill:#f9f9f9;stroke-width:0.264583" />
    <path
       class="st0"
       d="m 112.53199,29.352349 c 2.3204,0 4.51909,0 6.78392,0 0,7.78934 0,15.53369 0,23.42357 -2.25425,0.0529 -4.50056,0.0529 -6.78392,-0.008 0,-7.83696 0,-15.58396 0,-23.41563 z"
       id="path78"
       style="fill:#f9f9f9;stroke-width:0.264583" />
    <path
       class="st1"
       d="m 115.94512,15.329437 c 2.19075,0.169334 4.20687,0.851959 5.4901,2.931582 1.01336,1.64571 0.87048,3.67506 -0.33337,5.22552 -2.7649,3.55336 -8.42434,2.92629 -10.58863,-0.0185 -1.58485,-2.15635 -1.18004,-4.62227 0.49213,-6.32883 1.34143,-1.367897 3.04006,-1.701272 4.93977,-1.809752 z"
       id="path80"
       style="fill:#f9f9f9;stroke-width:0.264583" />
  </g>
</svg>
